#TITLE{お立ち台};
/*{Melody}*/ 
l4o4v8@0 l64d&d&d&d&d&d&d&d&d&d&d&d&d&d&d&d&d&d&d&d&d&d&d&d&d&d&d&d&d&d&d&dt220v0d2v15l8>d<d>a<d>g<d>a<d>d<d>a<d>g<d>a<d>d<d>a<d>g<d>a<d>d<d>a<d>g<d>a<d>d<d>a<d>g<d>a<d>d<d>a<d>g<d>a<d>d<d>a<d>g<d>a<d>d<d>a<d>g<d>a<d>d<d>a<d>g<d>a<d>d<d>a<d>g<d>a<d>d<d>a<d>g<d>a<d>d<d>a<d>g<d>a<d>d<d>a<d>g<d>a<d>d<d>a<d>g<d>a<d>d<d>a<d>g<d>a<d>d<d>a<d>g<d>a<d>d<d>a<d>g<d>a<d>d<d>a<d>g<d>a<d>d<d>a<d>g<d>a<d>d<d>a<d>g<d>a<d>gabgfgafgabab<d>bagabgfgafgabagagab<c+dc+>ba+b<c+edef+edc+c-c+dc+d>bef+gab<c+>bagf+ed<d>a<d>g<d>a<d>d<d>a<dv12>g<d>a<dv10>d<d>a<dv8>g<d>a<dv6>d<d>a<dv4>g<d>a<d;
/*{Chord1}*/
l4o4v8@0 l1.rrrr2v10<a4l8<d>a<c+4d>a<d4d>a<c+4d>ab<e>a<cdeec4d>aa4aara4<d>a<c+4d>a<d4d>a<c+4d>ab<e>a<cde>a<cd4d4d4>ara4<d>a<c+4d>a<d4d>a<c+4d>ab<e>a<cde>a<c4d>aa4aara4<d>a<c+4d>a<d4d>a<c+4d>ab<e>a<cde>a<cl4dddrl8dgdggd>a4<dgdggd>a<fdgdggd>a4<d4gabgc-4dbdbbd>a+4b<c+dc+c-4deef+def+g+b4aaedc+>ba4;
/*{Chord2}*/
l4o4v8@0 l1.rrrl2rv15<df+gf+e4c8d8l4ecd>aa<c8c+8l2df+gf+e4c8d8e4c4dd4r4df+gf+e4c8d8l4ecd>aa<c8c+8l2df+gf+l4ec8d8ecd2drc-dc8>b8abggl8gab4<d4c>ba4b4r2b<c+d4f+4edc+>a+b<c+dc+c-4def+4ef+g+4e4a4edc+>ba4;
#END;
