#TITLE	{不思議なお話しを};
/*{Melody}*/
l4o4v8l64g&g&g&g&g&g&g&g&g&g&g&g&g&g&g&g&g&g&g&g&g&g&g&g&g&g&g&g&g&g&g&gv0g2t136v15l8gc-dgdbgdac-cfcafca+cdfcdafdg4b+bgdc-gc-dgdbgdac-cfcafca+cdfdfafdgrb+bgdc-gc-dgdbgdac-cfcafca+cdfdafcdgrb+bgdc-gc-dgdbgdac-cfcafca+cdfdafcdgrb+bgdc-gc-dgdbgdac-cfcafca+cdfdafcdgrb+bgdc-gc-dgdbgdac-cfcafca+cdfdafcdgrb+bgdc-gab+gab+gagab+gab+gadd+gdd+gdd+dd+gdd+gdd+gab+gab+gagab+gab+gadd+gdd+gdd+dd+gdd+gdd+cdecdecdcdfcdfcd>c4rc4r>c4<ccrc4r>c4o4fga+fga+fgfga+fga+fgdd+gdd+gdd+dd+gdd+gdd+o2aarar<e>araarar<e>araarar<ef+ga4<d>a4<d>ba;
/*{Chord1}*/
l4o4v8r1v15l4.>gdg4fcf4d+dl4d>d.g2r8<g.d.gf.c.fd+.d.d>d.g2r8g8gg<d8g>f8ff<c8fd+8d+d+l8f>dfgl4gg<d8g>g8gg<d8g>f8ff<c8fd+8d+d+l8f>dfgl4gg<d8g>g8gg<d8g>f8ff<c8fd+8d+d+l8f>dfgl4gg<d8g>g8gg<d8g>f8ff<c8fd+8d+d+l8f>dfgl4gg<d8gf8ffc8>f<f8ffc8>f<d+8d+d+>a+8d+<d+8d+d+>a+8d+<f8ffc8>f<f8ffc8>fl8o4fga+fga+fgfga+fga+fgefaefaefefaefaefc1.d4f4aa+<d>aa+<d>aa+aa+<d>aa+<d>aa+fga+fga+fgfga+fga+fgg1&g1a1f+4gf+4>agf+;
/*{Chord2}*/
l4o4v8l1.rrrrrrrrrrrrrrrrr1v15l8efaefaefefaefaeffga+fga+fgfga+fga+fgefaefaefefaefaef>d+l4d+d+>a+8d+<d+8d+d+>a+8d+<dr8d>a8d<d8dd>a8do4g1.ga>d+8d+d+>a+8d+<d+8d+d+f8g8g+8a+r8a+f8>a+<g+8g+g+.d+8c-8<d1&d1d1de8d;
/*{Melody}*/
l4o4v8l64<g&g&g&g&g&g&g&g&g&g&g&g&g&g&g&g&g&g&g&g&g&g&g&g&g&g&g&g&g&g&g&gv0g2t136v10l8gdab2rab<cc4>ba4a+b+a+a4gf4c4ed2rgdab2rab<cc4>ba4a+b+a+l4<dc8>ba.g2r8v13b<c8d.gfd8c.>g8a8a+a8g.fcf8d2r8b<c8d.gfd8c.>g8a8a+b+8aa+8aa.g2r8b<c8d.gfd8c.>g8a8a+a8g.fcf8d2r8b<c8d.gfl8ga4.aa+b+4a+a4gf4a4.g2r>f4ga2rf4ga4a+b+a+a4.g16f16g1&g4.rf4ga2rf4ga4a+b+a+a4.l16gfg1f4g4r4.ede4.cc-c2l4>ga<c.d1&d8def.l16dcd4.>a+aa+2<c4d+4c+4.>a+g+a+4.g+gg+2a4f4g1&g1a2.r8b8<c8d8c8>b8a8f+8e8d8;
/*{Chord1}*/
l4o4v8r1v10l8<dc-f+g2rfgaa4gf4gagf4ed4>a4.b2r<dc-f+g2rfgaa4gf4gagl4ag8dc.c2r8v13ga8b.bb+b8a.d8e8gd8c.d>a<d8>b2r8<ga8b.bb+b8a.d8f8gd8cd8fg.d2r8ga8b.bb+b8a.d8e8gd8c.d>a<d8>b2r8<ga8b.bb+l8ba4.<cdf4d+d4c>a+4g4.g2r>a4a+<c2r>a4a+<c4dfdc4.>a+16a16a+1&a+4.ra4a+<c2r>a4a+<c4dfdl4c.>a+16a16a+1aa+<a1&a1g1.gal2a+agf4r4fd+c+cc1&c1d.r8e8f+8g8f+8d8c8>b8a8f+8;
/*{Chord2}*/
l4o4v8l1.rrrrrrrrrrrrrrrrrrrrrrv13a1&a1v13l4o6d.c2r8d.cr8cl2dc>a+f4g4ra+g+fg1.l8agf+df+1;
#END;
