/*
   [PC98:OPNA] ぽっぷるメイル - バックアップ作成 - (C)Falcom 1992 by LinearDrive
   date: 2010-12-31初版,  2011-01-09第２版 音長表現改定
   JASRAC: 016-0189-0
*/


#TITLE{[PC98] ぽっぷるメイル - バックアップ作成 - (C)Falcom 1992};
#REV;
#TMODE{unit=100};
#FPS 1000;


// tone for OPN (feedback adj./TL adj.)
/* CON, FB,
    AR, DR, SR, RR, SL, TL, KS,MUL, DT,AMS */
#OPN@000
{    4,  6,
    27,  4,  0,  6, 15, 35,  1,  3,  3,  0,
    31,  7,  0,  7, 15,  0,  2,  1,  4,  0,
    31,  7,  0,  4, 14, 41,  1, 14,  7,  0,
    31,  8,  0,  7, 15,  0,  0,  4,  7,  0 };

#OPN@001
{    5,  8,
    31,  6, 10, 15, 10, 26,  1,  2,  0,  0,
    31,  6, 10, 15, 10,  0,  1,  4,  1,  0,
    31,  6, 10, 15, 10,  0,  1,  2,  0,  0,
    31,  6, 10, 15, 10,  0,  1,  2,  0,  0 };

#OPN@002
{    4,  6,
    18,  0,  0,  0,  0, 21,  0,  4,  7,  0,
    18, 10,  4,  6,  1,  0,  0,  4,  7,  0,
    18,  0,  0,  0,  0, 21,  0,  4,  3,  0,
    18, 10,  4,  6,  1,  0,  0,  4,  3,  0 };

#OPN@003
{    4,  8,
    31,  0,  0,  0,  0, 33,  0,  8,  7,  0,
    18, 15,  9,  7,  3,  0,  0,  8,  7,  0,
    31,  0,  0,  0,  0, 24,  0,  4,  3,  0,
    31, 15,  9,  7,  3,  0,  0,  4,  3,  0 };

#OPN@004
{    0,  6,
    30,  3,  8,  6, 11, 33,  2,  0,  3,  0,
    31, 16, 24,  6, 11, 20,  3,  0,  4,  0,
    31,  4,  8,  6,  9, 23,  3,  0,  2,  0,
    31,  4,  4, 10,  8,  0,  3,  0,  3,  0 };

#OPN@005
{    4,  7,
    31, 21, 30,  9, 15, 16,  0,  1,  0,  0,
    26,  1, 15, 12,  9,  0,  0,  0,  0,  0,
    31, 22, 20,  8,  9,  0,  0,  1,  0,  0,
    28, 22, 16,  9,  4,  0,  0,  1,  0,  0 };

#OPN@006
{    4,  7,
    31, 31,  2,  5,  0,  0,  0, 15,  1,  0,
    31, 19,  2, 15, 14,  0,  1,  9,  7,  0,
    31, 11,  4, 15, 10,  4,  0, 15,  3,  0,
    31, 22, 11, 15, 14,  0,  2, 15,  3,  0 };

#OPN@007
{    4,  7,
    31, 10, 10,  9,  2,  3,  0, 11,  0,  0,
    26, 17, 15, 12,  9,  0,  0,  3,  0,  0,
    31, 22, 20,  8,  9,  0,  0,  0,  0,  0,
    28, 14, 16,  9,  4,  0,  0,  1,  0,  0 };

#OPN@008
{    4,  7,
    25, 23, 10,  8, 14, 25,  1,  5,  6,  0,
    25, 14, 11,  8, 15,  0,  1,  1,  5,  0,
    25, 20, 11,  8, 14, 27,  1,  3,  6,  0,
    25, 14, 12,  8, 15,  0,  1,  1,  6,  0 };

#OPN@010
{    4,  6,
    27,  4,  0,  6, 15, 37,  1,  3,  3,  0,
    31,  7,  0,  7, 15,  0,  2,  1,  4,  0,
    31,  7,  0,  4, 14, 53,  1, 14,  7,  0,
    31,  8,  0,  7, 15,  0,  0,  4,  7,  0 };

#OPN@011
{    4,  6,
    27,  4,  0,  6, 15, 39,  1,  3,  3,  0,
    31,  7,  0,  7, 15,  0,  2,  1,  4,  0,
    31,  7,  0,  4, 14, 65,  1, 14,  7,  0,
    31,  8,  0,  7, 15,  0,  0,  4,  7,  0 };


/* orig.tone
   CON, FB,
    AR, DR, SR, RR, SL, TL, KS,MUL, DT,AMS 
#OPN@000
{    4,  6,
    27,  4,  0,  6, 15, 35,  1,  3,  3,  0,
    31,  7,  0,  7, 15,  0,  2,  1,  4,  0,
    31,  7,  0,  4, 14, 41,  1, 14,  7,  0,
    31,  8,  0,  7, 15,  0,  0,  4,  7,  0 };

#OPN@001
{    5,  7,
    31,  6, 10, 15, 10, 25,  1,  2,  0,  0,
    31,  6, 10, 15, 10,  0,  1,  4,  1,  0,
    31,  6, 10, 15, 10,  0,  1,  2,  0,  0,
    31,  6, 10, 15, 10,  0,  1,  2,  0,  0 };

#OPN@002
{    4,  5,
    18,  0,  0,  0,  0, 21,  0,  4,  7,  0,
    18, 10,  4,  6,  1,  0,  0,  4,  7,  0,
    18,  0,  0,  0,  0, 21,  0,  4,  3,  0,
    18, 10,  4,  6,  1,  0,  0,  4,  3,  0 };

#OPN@003
{    4,  7,
    31,  0,  0,  0,  0, 33,  0,  8,  7,  0,
    18, 15,  9,  7,  3,  0,  0,  8,  7,  0,
    31,  0,  0,  0,  0, 24,  0,  4,  3,  0,
    31, 15,  9,  7,  3,  0,  0,  4,  3,  0 };

#OPN@004
{    0,  6,
    30,  3,  8,  6, 11, 33,  2,  0,  3,  0,
    31, 16, 24,  6, 11, 20,  3,  0,  4,  0,
    31,  4,  8,  6,  9, 23,  3,  0,  2,  0,
    31,  4,  4, 10,  8,  0,  3,  0,  3,  0 };

#OPN@005
{    4,  7,
    31, 21, 30,  9, 15, 16,  0,  1,  0,  0,
    26,  1, 15, 12,  9,  0,  0,  0,  0,  0,
    31, 22, 20,  8,  9,  0,  0,  1,  0,  0,
    28, 22, 16,  9,  4,  0,  0,  1,  0,  0 };

#OPN@006
{    4,  7,
    31, 31,  2,  5,  0,  0,  0, 15,  1,  0,
    31, 19,  2, 15, 14,  0,  1,  9,  7,  0,
    31, 11,  4, 15, 10,  4,  0, 15,  3,  0,
    31, 22, 11, 15, 14,  0,  2, 15,  3,  0 };

#OPN@007
{    4,  6,
    31, 10, 10,  9,  2,  3,  0, 11,  0,  0,
    26, 17, 15, 12,  9,  0,  0,  3,  0,  0,
    31, 22, 20,  8,  9,  0,  0,  0,  0,  0,
    28, 14, 16,  9,  4,  0,  0,  1,  0,  0 };

#OPN@008
{    4,  7,
    25, 23, 10,  8, 14, 25,  1,  5,  6,  0,
    25, 14, 11,  8, 15,  0,  1,  1,  5,  0,
    25, 20, 11,  8, 14, 27,  1,  3,  6,  0,
    25, 14, 12,  8, 15,  0,  1,  1,  6,  0 };
*/


//table for amplitude envelope
#TABLE  5 {    (128)16, (128,96)8,   (96,0)2400   | 0   };
#TABLE  2 {    (128)16, (128,112)16, (112,0)3200  | 0   };
#TABLE  9 { (80,128)48,  128                      | 128 };
#TABLE  6 {    (128)16, (128,96)32,  (96,0)800    | 0   };


/* ch.1 FM */
#A=
   q8 @q0 kt0 k0 %6 %v4,4 %x1 v16 x128
   o4 @4 v13
   $ 
   [ 
     c12r6c6<g12b12r6b6g12a12r6a6>a12<g12r12g12g12a12b12>
     f12r6f6c12e12r6e6c12d6d12d12e12f12g12g12a12b4g4g6
     g12f4f6f12e4e6e12a4a6a12f12r6f6f12g6d12g6d12c12r6<
     g12r6>c12r4.r24 
   ]2 
   f12r6f12r12f12e12r6e12r12e12d12r6d12e12d12c12c12c12c12d12e12
   f12r6f12r12f12f+12r6f+12r12d12g12r6g12r12g12<g12g12g12g12a12b12>
   f12r6f12r12f12g12r6g12r12f12e12e12e12e12g12b12a12a12a12g12g12g12
   f12r6f12r12f12g12r6g12r12d12c12r6c12r6c12r4.r24
;


/* ch.2 FM */
#M= mp0,6144,0,0;
#N= mp0,0,0,0;
#B=
   q8 @q0 kt0 k0 %6 %v4,4 %x1 v16 x128
   o4 v15
   @lfo210,6 M
   $ 
   [ 
     [ 
        @5 e12r12 @6 e12 @7 e12r12 @6 e12 @5 e12r12 @6 e12 @7 e12> 
        @8  N  (7  @p64 c24r24< @p-64 g24r24 @p0  )7  M 
     ]4 
     [  @5 e12 @6 e12e12 @7 e12 @6 e12e12 ]4 
      @5 e12r12 @6 e12 @7 e12r12 @6 e12 @5 e12r12 @6 e12 @7 e12> 
      @8  N  (7  @p64 c24r24< @p-64 g24r24 @p0  )7  M 
      [  @7 e12 @6 e12e12 ]2   @7 e12r4.r24 
   ]2 
   [ 
     @5 e12r12 @6 e12 @7 e12r12 @6 e12 @5 e12r12 @6 e12 @7 e12> 
     @8  N  (7  @p64 c24r24< @p-64 g24r24 @p0  )7  M 
   ]7 
   [  @7 e12 @6 e12e12 ]2 
   @7 e12r4.r24
;


/* ch.3 FM */
#C=
   q8 @q0 kt0 k0 %6 %v4,4 %x1 v16 x128
   o6 v12
   $ 
   [ @0 
     e12r6e12r12g12d12r12e12f12r12d12c12r2r6c12e12g12a12r6
     a12 @10 b12>c12< @0 g12r12a12g12r12a12f12r2r6f12g12a12 @10 b12r6b12r4
     b12b12b12>c12 @11 d12 @10 c12r3< @0 g12a12r4
     g12f12e12r6f12r12e12d12r12f12e12r12d12c12r2..r24 
   ]2 << 
   ((
   @1  @lfo10,2 mp0,8,435,0  /*MP20,1,-4,5*/ 
   a12r12a12a12b12>c12<g12r12g12g12b12>c12<f12r12f12f12g12a12
   g6f12e12f12g12a12r12a12a12b12>c12e12e12e12e12f12e12d1f4<
   a12r12>c12<b4b12>c12d12b6a12g+12r12b12a4a12b12>c12<a12r6
   a12r6b12r12>c12d12r12<b12>c2&c6r3
   ))
;


/* ch.4 FM */
#D=
   q8 @q0 kt0 k0 %6 %v4,4 %x1 v16 x128
   o6 v5
   r8
   $ 
   [ @0  k4 
     e12r6e12r12g12d12r12e12f12r12d12c12r2r6c12e12g12a12r6
     a12 @10 b12>c12< @0 g12r12a12g12r12a12f12r2r6f12g12a12 @10 b12r6b12r4
     b12b12b12>c12 @11 d12 @10 c12r3< @0 g12a12r4
     g12f12e12r6f12r12e12d12r12f12e12r12d12c12r2..r24 
   ]2 << 
   @1  @lfo10,2 mp0,8,435,0  /*MP20,1,-4,5*/
   a12r12a12a12b12>c12<g12r12g12g12b12>c12<f12r12f12f12g12a12
   g6f12e12f12g12a12r12a12a12b12>c12e12e12e12e12f12e12d1f4<
   a12r12>c12<b4b12>c12d12b6a12g+12r12b12a4a12b12>c12<a12r6
   a12r6b12r12>c12d12r12<b12>c2&c6r3
;


/* ch.5 FM */
#E=
   q8 @q0 kt0 k0 %6 %v4,4 %x1 v16 x128
   o3 v8
   @lfo10,2 mp0,8,435,0 /*MP20,1,-4,5*/
   $ 
   @2
   [ 
     r4e12d12c12g4<b4>c4e4g4a+4a1<a4b4>c4d4
     d2d12d12d12d12e12f12g4e6g12a2<a4a12b12>c12f4e4c1 
   ]2 > 
   @q2 
   [ 
     r12 @3 f12a12>c12<a12f12
     | 
     r12e12g12>c12<g12e12r12d12f12a12f12d12r12c12d12e12f12g12 
   ]2  
   r12f+12a12>c12<a12f+12r12<g12b12>d12g12b12>d12<b12g12d12<b12g12>>
   )
   @1 
   a4c12r12e12d4d12e12f12>d6c12<b12r12>d12c4c12d12e12<
   f12r6f12r6g12r12a12b12r12g12g12r6g12r6g12r4.r24<<
   (
;


/* ch.6 FM */
#F=
   q8 @q0 kt0 k0 %6 %v4,4 %x1 v16 x128
   o3 v6 
   @lfo10,2 mp0,8,435,0  /*MP20,1,-4,5*/
   r12
   $ 
   [ @2 k4 
     r4 @p64 e12 @p-64 d12 @p64 c12 @p-64 g4< @p64 b4> 
     @p-64 c4 @p64 e4 @p-64 g4 @p64 a+4 @p-64 a1< @p64 a4 
     @p-64 b4> @p64 c4 @p-64 d4 @p64 d2 @p-64 d12 @p64 d12 
     @p-64 d12 @p64 d12 @p-64 e12 @p64 f12 @p-64 g4 @p64 e6 
     @p-64 g12 @p64 a2< @p-64 a4 @p64 a12 @p-64 b12> @p64 c12 
     @p-64 f4 @p64 e4 @p-64 c1 
   ]2 > 
   ))
   @q2  @3 
   [ 
     r12 @3 @p64 f12 @p-64 a12> @p64 c12< @p-64 a12 @p64 f12 
     | 
     r12 @p-64 e12 @p64 g12> @p-64 c12< @p64 g12 @p-64 e12r12 
     @p64 d12 @p-64 f12 @p64 a12 @p-64 f12 @p64 d12r12 @p-64 c12 
     @p64 d12 @p-64 e12 @p64 f12 @p-64 g12 
   ]2 
     r12 @p64 f+12 @p-64 a12> @p64 c12< @p-64 a12 @p64 f+12r12< 
     @p-64 g12 @p64 b12> @p-64 d12 @p64 g12 @p-64 b12> @p64 d12< 
     @p-64 b12 @p64 g12 @p-64 d12< @p64 b12 @p-64 g12>> 
   ((
   (
   @1 
   @p64 a4 @p-64 c12r12 @p64 e12 @p-64 d4 @p64 d12 @p-64 e12
   @p64 f12> @p-64 d6 @p64 c12< @p-64 b12r12> @p64 d12 @p-64 c4 
   @p64 c12 @p-64 d12 @p64 e12< @p-64 f12r6 @p64 f12r6 @p-64 g12r12 
   @p64 a12 @p-64 b12r12 @p64 g12 @p-64 g12r6 @p64 g12r6 @p-64 g12r4.r24<<
   )
;


/* ch.7 SSG */
#G=
   q8 @q0 kt0 k0 %8 @8,63,0,0,63,0 %v3,4 %x3 v16 x128
   na1 s29
   o5 v13
   $ 
   [ 
     na5 
     r6c12c12e12g12r6<b12b12>d12g12r6<a12a12>c12e12
     na2 
     e12g12a+12e4 
     na5 
     r6c12c12f12a12r6<b12b12>d12g12r6 
     na2 
     g12g12b12>d12g12b12>d12<f4 
     ((
     na9 
     d6r12d6r12c6r12c12d12e12< 
     ))
     na5 
     e12g12b12>d12e12d12c6<b6g6r6c12c12d12e12r12
     d12d12d12e12f12e12r6e12r6e12r4.r24 
   ]2 > 
   @q2 na6 
   [ 
     r12f12a12>c12<a12f12
     | 
     r12e12g12>c12<g12e12r12d12f12a12f12d12r12c12d12e12f12g12 
   ]2 
   r12f+12a12>c12<a12f+12r12<g12b12>d12g12b12>d12<b12g12d12<b12g12
   r12f12a12>c12<a12f12r12g12b12>d12<b12g12r12e12g12b12>e12d12r12<
   a12>c12e12c12<a12a12c12f12g12a12>c12<b12d12g12a12b12>d12c12e12
   g12c12e12g12c12r4.r24<
;


/* ch.8 SSG */
#H=
   q8 @q0 kt0 k0 %8 @8,63,0,0,63,0 %v3,4 %x3 v16 x128
   na1 s29
   o5 v13
   $ 
   [ 
     na5 k5 
     r6e12e12g12>c12r6<<g12g12b12>d12r6c12c12e12a12 
     na2 
     g12a+12>e12g4 
     na5 
     r6a12a12c12f12r6<d12d12g12b12r4 
     (( 
     na2 
     g12g12b12>d12g12b12>d12<f6< 
     ((
     na9 
     b6r12b6r12a6r12a6r12 
     ))))
     na5 
     g12b12>d12f12g12f12e6d6<b6r6a12a12b12>c12r12<
     b12b12b12>c12d12c12r6c12r6c12r4.r24< 
   ]2 > 
   @q2 na6 
   [ 
     r12a12>c12<a12f12c12
     | 
     r12g12>c12<g12e12c12r12f12a12f12d12<a12r12>e12f12g12a12b12 
   ]2  
   r12a12>c12e12c12<a12r12<b12>d12g12b12>d12g12d12<b12g12d12<b12r12<
   a12>c12<a12f12c12r12b12>d12<b12g12d12r12g12b12>d12g12f12r12>
   c12e12c12<a12e12>c12<f12a12>c12c12e12d12<g12b12>c12d12f12e12g12>
   c12<e12g12>c12<e12r4.r24<
;


/* ch.9 SSG */
#I=
   q8 @q0 kt0 k0 %8 @8,63,0,0,63,0 %v3,4 %x3 v16 x128
   na1 s29
   o5 v9 
   $ 
   [ 
     na5 k9 r24 
     r4c12e12g12r6<b12b12>d12g12r4<a12>c12e12 
     na2 
     e12g12a+12e4 
     na5 
     r6c12c12f12a12r6<b12b12>d12g12r6
     na2 
     g12g12b12>d12g12b12>d12<f6r24< 
     ((
     na9
     g6r12g6r12f6r12>c12d12e12< 
     ))
     na5 
     e12g12b12>d12e12d12c6<b6g6r6c12c12d12e12r12
     d12d12d12e12f12g12r6g12r6g12r4.r24 
   ]2 > 
   @q2 na6 
   [ 
     r12f12a12>c12<a12f12
     | 
     r12e12g12>c12<g12e12r12d12f12a12f12d12r12c12d12e12f12g12 
   ]2  
   r12f+12a12>c12<a12f+12r12<g12b12>d12g12b12>d12<b12g12d12<b12g12
   r12f12a12>c12<a12f12r12g12b12>d12<b12g12r12e12g12b12>e12d12r12<
   a12>c12e12c12<a12a12c12f12g12a12>c12<b12d12g12a12b12>d12c12e12
   g12c12e12g12c12r4.r24<
;



/* 演奏 */
t10045
A;
B;
C;
D;
E;
F;

G;
H;
I;



#END;
