#TITLE{XANADU-MSX Field-};
#REV;$kt7q1[l16ab>c8c8c8<bal8bgegarrg16f16gecrfrre16d16ec<ar>|e-re-rerr]2drc<barr>c16d16eeeggf16e16f4dddffe16d16edccceedr<a>crdc<brr;
$kt7q1<<l8r
a>a<a>a<g>g<g>g<f>f<f>fc>c<c>c<d>d<d>d<<a>a<a>a<b>b<b>br<ber<
a>a<a>a<g>g<g>g<f>f<f>fc>c<c>c<d>d<d>d<<a>a<a>a<b>be>e<ae<ag16b16>
c>c<c>c<<f>f<f>f<g>g<g>gc>c<<b>b<aa-a>ad>d<d>d<e->e-<e>ee<be;
kt7q8v6l16<rr$r1r1r1r1r1r1r1r1
g4.>e4<a>c<a8>c8<b4.>d4c<b>c8<b8>e2&e8a>cec<a>c<<a2&a8a-4ab;

