MML@t100v5l64ccccccccccccccccccccccccccccccccr2t164v15l16>g+<aa>f+<aa>e<aa>f+<aa>e<a>f+<a>g+<aa>f+<aa>e<aa>f+<aa>e<a>f+<a>g+<aa>f+<aa>e<aa>f+l8<a>ed+4ed+c-4c+d+el16g+<aa>f+<aa>e<aa>f+<aa>e<a>f+<a>g+<aa>f+<aa>e<aa>f+<aa>e<a>f+<al24>g+f+21fg+f+21fg+f+21fg+f+21fg+f+21fg+f+21fg+f+21fg+f+21fl8ff+fc+2&c+v10f+f+f+f+f+f+f+f+f+f+f+f+f+f+f+f+eeeeeel16ef+ef+ef+ef+ef+ef+ef+ef+ef+ef+l8f+f+f+f+f+f+f+f+eeeeeeeeeeeeeeeel24g+f+21fg+f+21fg+f+21fg+f+21fg+f+21fg+f+21fg+f+21fl8fv13o2aaaaaaaaaaaaaa>c+<bg+g+g+f+g+g+g+g+g+g+g+f+g+g+g+g+f+f+f+f+f+f+f+f+aaaaaaaag+g+g+g+g+g+g+g+>g+2.e4<aaaaaaaabbbbbbbag+g+g+g+g+g+b>cc+c+c+c+c+<g+>c+c+<f+f+f+f+f+f+f+f+g+g+g+g+g+g+g+g+aaaaaaaabbbbbbbb>c+c+c+c+c+c+c+g+v7g+g+g+g+g+g+g+g+g+1,l1.rrrrrrv15e4e8d+16e2.&e8.l8ef+ed+ed+4d+e16d+1.&d+16e4ed+16e2.&e.c-f+ef+ef+.g+.g+1.&g+g+2f+4.c+2c+bag+ag+2f+4g+f+4c-2.eed+c+d+16e4.&e16eed+ef+16e.ef+4g+4ag+2.&g+e4f+g+4g+4f+f+e16f+.g+4g+4f+f+e16f+.g+4b4g+bb4g+bl4>c+<g+f+g+8f+8e8c+.g+2g+8f+g+bf+f+.e2.&e8g+l8f+.e.d+d+2.&d+c+c+1&c+1,r1v13l8o2aaag+aag+abbbabbbag+g+g+f+g+g+b>cc+c+c+c+c+<g+>c+4<aaag+aag+abbbbbbab>c+c+c+c+c+c+c+g+>c+c+c+c+c+c+l4<g+c+c+c+c+c+c+c+c+<bbbbbbbbaaaabbbbeeeeeeeel1rrrrrrrrrrrrrrrrrv5l8o4fffffffff1;