#TITLE{FM-death test};

#REV;


#OPM@1{3,3:
//	 AR  DR  SR  RR  SL  OL  KS  ML DT1 DT2 AME
	 31, 18,  0,  1,  0, 21,  0,  2,  7,  1,  0:
	 31, 12,  0,  2,  0, 22,  0,  1,  2,  0,  0:
	 31, 18,  0,  4,  0, 24,  0,  4,  3,  0,  0:
	 31,  6,  0,  4,  5,  0,  0,  4,  0,  0,  0:
};

#OPM@2{3,7;
//	 AR  DR  SR  RR  SL  OL  KS  ML DT1 DT2 AME
	 31, 18,  0,  1,  0, 25,  0,  2,  7,  1,  0;
	 31, 12,  0,  2,  0, 24,  0,  1,  2,  0,  0;
	 31, 18,  0,  0,  0, 21,  0,  4,  3,  0,  0;
	 31,  6,  0,  4,  5,  0,  0,  4,  0,  0,  0;
};

#OPM@3{5,5;
//	 AR  DR  SR  RR  SL  OL  KS  ML DT1 DT2 AME
	 31, 12,  0,  3,  0,  2,  0,  0,  3,  0,  1;
	 31,  6,  0,  6,  5,  0,  1,  0,  7,  0,  1;
	 31,  6,  0,  5,  5,  0,  1,  2,  2,  0,  1;
	 31,  6,  0,  7,  5,  0,  1,  4,  3,  0,  1;
};


#OPM@100{ 4,  5;
//      AR  DR  SR  RR  SL  OL  KS  ML DT1 DT2 AME
        31, 28, 10,  0, 15,  0,  0,  4,  7,  0,  0;
        31, 14, 12, 15,  0,  0,  2,  2,  7,  0,  0;
        31, 25, 10,  0, 15,  0,  0,  2,  3,  0,  0;
        31, 14, 12, 15,  0,  0,  2,  2,  3,  0,  0;
};

#OPM@100{ 4,  5;
//      AR  DR  SR  RR  SL  OL  KS  ML DT1 DT2 AME
        31, 28, 10,  0, 15,  0,  0,  4,  7,  0,  0;
        31, 14,  9, 15,  2,  0,  2,  2,  7,  0,  0;
        31, 25, 10,  0, 15,  0,  0,  2,  3,  0,  0;
        31, 14,  9, 15,  2,  0,  2,  2,  3,  0,  0;
};

#OPM@101{4,6;
//	 AR  DR  SR  RR  SL  OL  KS  ML DT1 DT2 AME
	 31,  1,  0,  5, 12, 11,  0,  0,  0,  3,  0;
	 31, 29, 10, 15,  0,  0,  0, 14,  0,  1,  0;
	 31, 22,  7,  8,  6,  0,  0, 15,  7,  0,  0;
	 31, 20, 20, 15, 15,  0,  0,  0,  0,  1,  0;
};



#TABLE0{0,-4,-8,-10,-12,-14,-16,-18,-20,-22,-24,-24,-24,-23,-23,-23,-22,-22,-21,-21,-20,-19,-18,-17,-16,-15,-14,-13,-12};

//#TABLE1{(0,128)2(128)8};

//#TABLE2{|110};
#TABLE3{-3 -2 -1 0};

#H=%6@101 v6 o5 q4 p3;
#O=%6@101 v12 o5 q6 p5;

#A= nt3,2
//e8r16<b8r16>c8r16d8r16f8r8
//e8r16<b8r16>c8r16d8r16<a8a8>;
e8r12<b8r24>c8r12d8r24f8r8
e8r12<b8r24>c8r12d8r24<a8a8>;


//#EFFECT0{delay200,6,1};
//#EFFECT0{nlf1};

t127


$
@lfo4,3 mp950
%6@100 @v64,6 nt0,1 v16 l16 q8
o3 [f4]16 [f4]12 r2r4r12q4f24q8f8
;

$
%6@101 @v64,6 l16 
[[r8Oa+12Ha24]6 Op3a+8Oa+12Ha24 r8Oa+12Ha24]3
[r8Oa+12Ha24]4
r2r4Op4a+12r24r8
;



$
o5 %6@1 @v64,12 v9 p3
A;

$
o4 %6@1 @v64,12 v9 k24 p4
A;

$
o6 %6@2 @v64,12 v10 k-24 p5
A;

$
o4 %6@3 @v64,12 v8 k12 p3
A;

$
o3 %6@3 @v64,12 v7 k-12 p5
A;
