/*
    YsII - To Make The End of Battle - タイトル
    日本ファルコム 1988
*/

#TITLE{YsII - To Make The End of Battle - タイトル};
#REV;
#FPS  60;
#QUANT  8;
//#EFFECT0{reverb70,40,70,20};
//#EFFECT1{autopan1,100};

#OPN@000{
//AL FB
  00,05,
//AR DR SR RR SL TL  KS ML DT AM
  31,04,01,00,01,010,00,03,04,00,
  18,01,01,08,01,022,00,15,04,00,
  31,04,01,00,01,023,00,07,07,00,
  31,12,00,08,01,008,00,01,07,00};
#OPN@001{
//AL FB
  04,05,
//AR DR SR RR SL TL  KS ML DT AM
  31,00,00,00,00,013,00,03,07,00,
  18,15,01,06,03,016,00,03,07,00,
  31,00,00,00,00,023,00,02,03,00,
  31,15,01,06,03,016,00,02,03,00};
#OPN@002{
//AL FB
  00,05,
//AR DR SR RR SL TL  KS ML DT AM
  31,04,01,00,01,010,00,03,04,00,
  18,01,01,08,01,028,00,15,04,00,
  31,04,01,00,01,023,00,07,07,00,
  31,12,02,08,01,008,00,01,07,00};
#OPN@003{
//AL FB
  04,07,
//AR DR SR RR SL TL  KS ML DT AM
  31,00,00,00,00,033,00,08,07,00,
  18,15,01,07,03,016,00,08,07,00,
  31,00,00,00,00,024,00,04,03,00,
  31,15,01,07,03,007,00,04,03,00};
#OPN@004{
//AL FB
  04,07,
//AR DR SR RR SL TL  KS ML DT AM
  31,07,00,03,01,030,00,02,03,00,
  24,31,00,06,00,016,00,02,03,00,
  31,07,00,03,01,012,00,01,07,00,
  30,31,00,06,00,016,00,02,04,00};
#OPN@005{
//AL FB
  04,06,
//AR DR SR RR SL TL  KS ML DT AM
  27,04,00,06,15,035,00,03,03,00,
  31,07,00,07,15,016,01,01,04,00,
  31,07,00,04,14,041,00,14,07,00,
  31,08,00,07,15,023,00,04,07,00};
#OPN@006{
//AL FB
  02,07,
//AR DR SR RR SL TL  KS ML DT AM
  31,15,07,08,02,033,00,00,06,00,
  20,16,06,07,04,018,01,04,06,00,
  31,05,06,07,01,040,00,00,06,00,
  31,13,07,07,05,000,00,01,06,00};
#OPN@007{
//AL FB
  02,07,
//AR DR SR RR SL TL  KS ML DT AM
  31,15,07,08,02,033,00,00,06,00,
  20,16,06,07,04,024,01,10,06,00,
  31,05,06,07,01,040,00,00,06,00,
  31,13,07,07,05,000,00,01,06,00};
#OPN@008{
//AL FB
  04,07,
//AR DR SR RR SL TL  KS ML DT AM
  31,31,11,08,15,000,00,00,05,00,
  31,13,10,12,00,012,00,00,04,00,
  31,20,20,10,00,000,00,00,01,00,
  31,19,16,12,00,012,00,00,06,00};
#OPN@009{
//AL FB
  04,07,
//AR DR SR RR SL TL  KS ML DT AM
  31,00,00,15,00,000,00,15,04,00,
  31,19,14,15,03,000,00,10,04,00,
  31,21,00,15,11,000,00,02,01,00,
  31,17,17,15,02,000,00,00,07,00};
#OPN@010{
//AL FB
  04,07,
//AR DR SR RR SL TL  KS ML DT AM
  31,31,05,05,02,000,00,15,01,00,
  31,19,31,15,05,009,00,09,07,00,
  31,11,31,15,10,004,00,15,03,00,
  31,22,31,15,08,010,00,15,03,00};
#OPN@011{
//AL FB
  06,04,
//AR DR SR RR SL TL  KS ML DT AM
  41,45,43,01,10,098,00,02,07,00,
  39,39,16,05,10,113,00,01,06,00,
  11,04,45,01,10,072,00,08,00,00,
  02,40,33,01,10,000,00,00,02,00};
#OPN@012{
//AL FB
  04,00,
//AR DR SR RR SL TL  KS ML DT AM
  38,04,00,04,00,033,00,01,02,00,
  04,04,38,04,00,001,00,01,02,00,
  45,36,04,10,03,113,00,08,02,00,
  46,09,57,04,06,106,00,06,02,00};
#OPN@013{
//AL FB
  05,05,
//AR DR SR RR SL TL  KS ML DT AM
  46,00,46,11,10,046,01,09,00,00,
  50,49,45,14,10,046,01,04,00,00,
  49,43,43,08,10,049,01,00,00,00,
  49,45,41,11,10,045,00,13,02,00};
#OPN@014{
//AL FB
  06,01,
//AR DR SR RR SL TL  KS ML DT AM
  41,49,53,13,09,038,01,09,02,00,
  45,49,46,12,00,038,01,08,02,00,
  43,52,49,06,07,037,01,11,02,00,
  46,46,28,01,00,040,01,09,02,00};
#OPN@015{
//AL FB
  05,06,
//AR DR SR RR SL TL  KS ML DT AM
  53,43,43,04,03,033,00,06,00,00,
  40,40,46,04,03,037,01,15,01,00,
  32,41,45,00,01,034,01,00,00,00,
  41,41,49,00,01,048,01,00,03,00};
#OPN@016{
//AL FB
  06,06,
//AR DR SR RR SL TL  KS ML DT AM
  00,50,50,00,11,022,00,00,01,00,
  52,45,53,02,03,008,01,00,01,00,
  53,08,48,06,06,001,01,07,03,00,
  48,48,52,00,04,004,01,06,07,00};
#OPN@017{
//AL FB
  00,05,
//AR DR SR RR SL TL  KS ML DT AM
  01,45,41,09,02,000,00,03,00,00,
  04,41,38,11,02,118,00,10,05,00,
  08,43,24,00,01,050,00,01,00,00,
  00,40,24,08,01,022,00,10,07,00};
#OPN@018{
//AL FB
  04,06,
//AR DR SR RR SL TL  KS ML DT AM
  16,24,00,07,11,024,00,08,01,00,
  24,16,52,07,11,024,00,00,01,00,
  40,46,50,09,11,041,00,11,02,00,
  43,45,53,05,11,038,00,13,02,00};
#OPN@019{
//AL FB
  02,06,
//AR DR SR RR SL TL  KS ML DT AM
  50,43,52,13,10,020,00,07,03,00,
  48,48,53,06,10,051,00,06,06,00,
  02,24,16,09,10,102,00,08,01,00,
  16,24,50,13,10,002,00,04,03,00};
#OPN@020{
//AL FB
  01,00,
//AR DR SR RR SL TL  KS ML DT AM
  52,49,49,14,03,040,01,05,03,00,
  41,53,61,06,07,043,01,00,03,00,
  38,50,02,00,03,036,01,04,03,00,
  45,57,38,03,00,048,01,11,02,00};
#OPN@021{
//AL FB
  01,05,
//AR DR SR RR SL TL  KS ML DT AM
  08,03,40,01,10,016,00,02,06,00,
  00,00,38,06,10,022,00,00,00,00,
  04,45,36,04,10,118,00,10,07,00,
  49,41,08,04,10,001,00,14,03,00};
#OPN@022{
//AL FB
  02,03,
//AR DR SR RR SL TL  KS ML DT AM
  29,29,28,01,02,033,00,08,02,00,
  26,31,31,13,01,029,00,06,02,00,
  24,16,24,08,01,031,00,04,02,00,
  24,24,16,08,01,028,00,08,04,00};
#OPN@023{
//AL FB
  00,03,
//AR DR SR RR SL TL  KS ML DT AM
  00,43,40,08,01,024,00,00,01,00,
  40,43,24,00,01,016,01,08,01,00,
  38,45,43,04,02,034,01,12,01,00,
  41,41,40,15,01,033,01,15,01,00};
#OPN@024{
//AL FB
  05,06,
//AR DR SR RR SL TL  KS ML DT AM
  26,40,24,01,07,041,01,04,02,00,
  38,31,36,09,06,033,01,08,02,00,
  33,36,31,04,00,038,01,08,01,00,
  41,28,40,08,00,029,01,00,01,00};
#OPN@025{
//AL FB
  04,00,
//AR DR SR RR SL TL  KS ML DT AM
  04,38,04,06,06,102,00,00,02,00,
  43,04,46,04,00,004,00,07,02,00,
  38,39,38,11,02,034,00,06,06,00,
  24,43,24,14,02,039,00,08,01,00};
#OPN@026{
//AL FB
  04,06,
//AR DR SR RR SL TL  KS ML DT AM
  53,55,16,00,01,000,01,03,03,00,
  57,53,24,05,03,032,00,05,06,00,
  55,16,62,07,11,057,01,00,02,00,
  24,55,57,00,01,050,00,11,05,00};
#OPN@027{
//AL FB
  00,02,
//AR DR SR RR SL TL  KS ML DT AM
  12,41,43,00,01,024,00,08,01,00,
  32,45,41,08,01,003,00,08,01,00,
  45,43,16,02,03,113,00,05,03,00,
  38,24,43,02,03,105,01,07,03,00};
#OPN@028{
//AL FB
  03,00,
//AR DR SR RR SL TL  KS ML DT AM
  49,62,04,05,06,050,00,04,03,00,
  41,05,00,00,00,049,00,02,03,00,
  05,01,07,09,00,032,00,00,01,00,
  07,36,04,15,11,032,00,00,01,00};
#OPN@029{
//AL FB
  04,01,
//AR DR SR RR SL TL  KS ML DT AM
  60,02,36,02,00,019,01,06,04,00,
  03,00,18,00,00,002,01,04,06,00,
  00,28,02,01,07,000,01,03,04,00,
  36,02,01,09,06,060,00,02,00,00};
#OPN@030{
//AL FB
  01,04,
//AR DR SR RR SL TL  KS ML DT AM
  50,03,00,00,02,016,01,13,06,00,
  24,34,16,02,07,097,00,02,03,00,
  50,01,50,04,07,050,00,04,00,00,
  54,58,33,08,00,016,00,01,06,00};
#OPN@031{
//AL FB
  01,04,
//AR DR SR RR SL TL  KS ML DT AM
  36,04,33,01,10,012,00,00,02,00,
  05,33,33,01,10,003,00,06,00,00,
  04,37,40,11,10,103,00,01,07,00,
  00,38,41,09,10,033,00,09,06,00};

//     00112233445566778899aabbccddeeff00112233445566778899aabbccddeeff
#WAVB0{7f7f7f7f7f7f7f7f7f7f7f7f7f7f7f7f01010101010101010101010101010101};
#TABLE  0 { (0,-1800)24 | -1800 };
#TABLE  1 { (128,80)2 | 80 };
#TABLE  2 { (10,128)80 (128,0)80 | 0 };

#Z=
x128 v15 @v80 p @p @q0 s31 l8 q8
;

#A=Z %6
r4.
@lfo9,2 mp0,24,20,20
[
@0
o4 l8 d#ega&a<aaa >c#<a>d<a>e<a>d<a
o4 l16 @1 [ab-]4>[ab-]4 l8ab->c#<b-ab->c#d
o5 l8 @0 c#<ab-gafge b-gafgefd c#defgab->c# ec#<b->fc#<b-<ef
o3 l8 g2.ab- >c#2.ef gfefgab->c# l4eefg
o5 l8 fecd&d2 &d2<a>cdc fecd&d2 &d4.&d16*<a16agfe
o4 l4 f.d.f g.e.g a.f.d e.g.b-
o4 a1 >l8defgagfe l4g.e&e16*c16c <g.>c.e
o5 l8 fd<afda>df ec<gecg>ce <dfa>c#dfa>c# @2d2..&l16d*<d
@3
o4 l8 fecd&d2 &d2<a>cdc fecd&d2 &d2<agfe
o3 l4 f.d.f g.e.g a.f.d e.g.b-
o3 a1 >l8defgagfe l4g.e.c <g.>c.e
o4 l8 fd<afda>df ec<gecg>ce
@4
o4 l16 e-4.<b->e-g4.e-gb-4.gb->e-2
|
o5 l8 a2dfga& l4agf8g>d8& l4d<ag8fe8& l4ef.g.
@3
o4 l8 a2dfga& l4agf8g>d8& l4dded l2dc#
@5
o6 l8 [[dfa]4 e-gb-g [dfa]4 cceg]
]
@0
o5 l8 dr4d r4dd4.&l16d*<d
;

#B=Z %6
r4.
v9
[
@6 kt-12
o4l8 aaaao5c#o4ao5do4a o5eo4ao5fo4ao5go4ao5fo4a o5eo4ao5fo4ao5eo4ao5do4a o5c#o4ab-gab-o5c#o4b-

[o4 l8 aaa @1o5@v128a4. @v80@6o5a4 | o5a<aar aa>c#d]4 <a>a<aabb>c#c#
o5 l8 [[d]16 [c]16
o4 l8 b-b->fb->d<b-fb- ccgo6ceco5go6c <ddfa>d<afd <a>age<aaaa]
o5 l8 [[d]16 [c]16
o4 l8 b-b->fb->d<b-fb- ccgo6ceco5go6c | <ddfa>d<afd <a>age<aaaa] o5e-e-b-e-ge-ae-b-e-o6e-o5e-o6go5e-o6b-o5e-
|
o5 l8 [dd>d<d ga>cd <[ff>f<f] [b-b->b-<b-] | [aa>a<a]] g<a>a<a >aec#<a
@7
o5 l8 [[dr4dr4>cd <rdfd | e-e-gb-] cceg]
]
o5 l8 dd>d<dga>cd4.&l16d*<d
;

#O=@8  @v106 o5 np0 c;
#P=@9  @v101 o4 np0 c;
#Q=@10 @v101 o5 np  c;
#R=@8  @v106 o6 np0 c;
#S=@8  @v106 o5 np0 g;

#C=Z %6
l8v9
OP4
[
[OOP4]8
[OQQPOPOO]3 OQQPO x88P x108P x128P
[OQQPOPOO]3 O x48PPP x68P x88P x108P x128P
[[OQPQ]]7 OQPQPPPP
[[OQPQ]]7 OPPOPPOP
[[OQPQ]]7 OQPQPPPP
[[OQPQ]]7 OROSOl16RRSSSSl8
|
[[OQPQ]]7 OQPQOOOO
[OQQO QQPQ OOPQ OQOO]3 OQQO QQPQ OOPQ OPPP
]
ROOR OORR O
;

#D=Z
r4.
%4 @0 v3 s63 k0
[
o6l1q8 eg o7l8b-gec#o6b-gec# efg#fefg#a
@lfo11,2 mp0,24,4,4
l1b-o7eg2.l4fl1eo6b-o7eg
mp0,0
o6l4ec#de
[
[o6 l8dco5ga&a2o6l4agfe]
o6l4d.o5a.o6de.c.ef.d.o5l4ao6c#.e.g o5l1fl2ao6dl1ec
o6l1fe | dl4dc#o5bo6c#
]
o6 l1 na2 b-&b-
|
o5 l8 q4 na1 s26 [ffff rfr4] b-b-b-b- rb-r4 aaaa rar4
o6 l8 q4 na1 s26 [ffff rfr4] b-b-b-b- rb-r4 aaaa rar4
l8 q8 [[[o5fao6d]4 | o5gb-o6e-o5b- ] ggo6ce]
]
o5 l8 q8 ar4a r4aa4.
;

#E=Z
r4.
%4 @0 v3 s63 na1
[
k-7 o6l1q8 eg k0 o7l8gec#o6b-gec#o5b- o6c#dedc#def
@lfo11,2 mp0,24,4,4
o6l1gb-o7e2.l4dl1c#o6gb-o7e
mp0,0
k-7 o6l4ec#de
[
k0 [o5l8agef&f2o6l4fedc]
o5l4 a.f.a o6c.o5g.o6c d.o5a.f g.o6c#.e o5l1dl2fa o6l1co5g
o6l1dc | o5a1l4aaaa
]
o6 l1 na2 g&g
|
o5 l8 q4 na1 s26 dddd rdr4 cccc rcr4 ffff rfr4 eeee rer4
o6 l8 q4 na1 s26 dddd rdr4 cccc rcr4 ffff rfr4 eeee rer4
l8 q8 [[[o5ado6f]4 | o5b-o6e-ge- ] eego7c]
]
o5 l8 q8 na1 fr4f r4ff4.
;

#F=Z
r4.
%4 @0 v3 s63 na1
[
o6l1c#e o7l8ec#o6b-gec#o5b-g k-7 o6efg#fefg#a k0
@lfo11,2 mp0,24,4,4
l1eg b-2.a4g egb-
mp0,0
l4c#o5abo6c#
[
k-7 [o6l8dco5ga&a2o6l4agfe]

o6l4 d.o5a.o6d e.c.e f.d.o5a o6c#.e.g o5l1fl2ao6dl1ec
o6l1fe | o6d l4dc#o5bo6c#
]
o6 l1 na2 b-&b-
|
o5 l8 q4 na1 s26 [ffff rfr4] b-b-b-b- rb-r4 aaaa rar4
o6 l8 q4 na1 s26 [ffff rfr4] b-b-b-b- rb-r4 aaaa rar4
l8 q8 [[[o5fao6d]4 | o5gb-o6e-o5b- ] ggo6ce]
]
kt0 o5 l8 q8 na1 dr4d r4dd4.
;

t230;
A;
B;
C;
D;
E;
F;


#END;

