/*-----------------------------------------------
   『MOTHER』より Pollyanna(I Believe In You)
   1989.07.27 任天堂/パックスソフトニカ/エイプ
              作曲　鈴木慶一、田中宏和－
   JASRAC 082-0874-3
   2011.05.26 MML 初版 Hautbois.
   2011.06.12 SiON版
-----------------------------------------------*/

#TITLE{『MOTHER』より Pollyanna(I Believe In You)};
#REV;
#FPS 600;
#QUANT 8;

#TABLE  1 { (128,18)88(98,18)88(68,18)88(40,18)88 | 18 };
#TABLE  2 { (40,128)60(128)50(128,40)30 | 40 };
#TABLE  3 { (40,100)20(100,70)20(70)120(70,30)40 | 30 };
#TABLE  9 { (10,40)2(40,10)10(10,0)40 | 0 };
#TABLE 10 { (128)40(128,0)10 | 0 };

//      00112233445566778899aabbccddeeff00112233445566778899aabbccddeeff
#WAVB03{7f7f7f7f7f7f7f7f808080808080808080808080808080808080808080808080};
#WAVB04{7f7f7f7f7f7f7f7f7f7f7f7f7f7f7f7f80808080808080808080808080808080};
#WAVB10{0001234031231509FDF2E8DFD6CEC7C0BAB4AFAAA6A29E9B989694939597999DA3ACB2B9BEC7D1DAE2EBF4FC050D161E262F373F4850586169727475757575716D645F5C5855524F4C494644474642403E3B3B3834332F2D2C28221B16110C0C0B0A0703FEF9F6EEEADFD5CCC4BCB5AEA8A39E9995928E8B89868485878A898B8E8F91939598999FA2A6AAAEB1B4B8BDC0C5CAD0D5DDE1E7EFF7FA00080F161E252C33373A41494C4F565D61626265626363676364625E5B58524C4947413C352F2A252018100B05FFF8F5F0EBE6E3DFDCD5D4D3D0CCCBC9C8C8C9CACAC9CBCDCFCED0D3D7D9DBDFE4E7EBEEF4FAFD0006080B12181A1C23262B2C2E3132333B3C3E3C3A3D3B3937353836343230302F2B2926211B1A15120E0909080400FDFAF6F3F1EFECE9E8E6E3E1E0DEDCDBDAD9D7D6D5D4D3D4D3D3D2D1D3D5D3D5D4D5D7D9DADCDEE2E4E5E6EAECEEF1F2F4F6F8FBFF0104070A0C0D0D0F1114181E1D1C1F1E2125242625242326272723252423211E1B1E1F25272725201E1D1C17161510100C0A0A07050302050C0E17212A2C272523201F1E1D1B1A1918171615151413121111100F0E0E0D0D0C0B0B0A0A09090808080707060606050505040404030303030202020202010101010100000000000000FFFFFFFFFFFFFFFFFFFFFEFEFEFEFEFEFEFEFEFEFEFEFEFEFEFEFDFDFDFDFDFDFDFDFDFDFDFDFDFDFDFDFDFDFDFDFDFDFDFDFDFDFDFDFDFDFDFDFDFDFDFDFDFDFDFDFDFDFDFDFDFDFDFDFDFDFDFDFDFDFDFDFDFDFDFDFDFDFDFDFDFDFDFDFDFDFDFDFDFDFDFDFDFDFDFDFDFDFDFDFDFDFDFDFDFDFDFDFDFDFDFDFDFDFDFDFDFDFDFDFDFDFDFDFDFDFDFDFDFDFDFDFDFDFDFDFDFDFDFDFDFDFDFDFEFEFEFEFEFEFEFEFEFEFEFEFEFEFEFEFEFEFEFEFEFEFEFEFEFEFEFEFEFEFEFEFEFEFEFEFEFEFEFEFEFEFEFEFEFEFEFEFEFEFEFEFEFEFEFEFEFEFEFEFEFEFEFEFEFEFEFEFEFEFEFEFEFEFEFEFEFEFEFEFEFEFEFEFEFEFEFEFEFEFEFEFEFEFEFEFEFEFEFEFEFEFEFEFEFEFEFEFEFEFEFEFEFEFEFEFEFFFFFFFFFFFFFFFFFFFFFFFFFFFFFFFFFFFFFFFFFFFFFFFFFFFFFFFFFFFFFFFFFFFFFFFFFFFFFFFFFFFFFFFFFFFFFFFFFFFFFFFFFFFFFFFFFFFFFFFFFFFFFFFFFFFFFFFFFFFFFFFFFFFFFFFFFFFFFFFFFFFFFFFFFFFFFFFFFFFFFFFFFFFF00FFFFFF000000000000000000000000000000000000000000000000000000000000000000000000000000000000000000000000000000000000000000000000000000000000000000000000000000000000000000000000000000000000000000000000000000000000000000000000000000000000000000000000000000000000000000000000000000000000000000000000000000000000000000000000000000000000000000000000000000000000000000000000000000000000};
#WAVB11{000B3E35281A0F0804040B1317171317222B3333312F2D2B29282626242220201E1A0F02F7EBE2D8D1C7C2BAB5AFA9A6A29E9A9795918F8D8B8B898987878D959EA7B1BAC2CBD5DCE4EDF5FC060D151C242B333A444B5149403E464D555E66696662605C595149403124180D02F8EFE8E0D8D1CBC6C0BCB7B3AFABA9A6A4A2A09E9C9CA0A4A7ABB1B7BEC6CFD7DEE6EDF5FC040B131820282F353C444B515960686F777E776859493C2F24180F06FCF5EDE6E0D8D3CFC9C7C7C2C0C4C9CDCFD1D1CFD1D5DADCE0E8EFF1F8FA00040911181A202428282829262626292D33312D2F2D2B333A392D28222629261E171311080404FCF5F5F5EDE6E0DEDADCDAD7D1CDD3D5D5D1CDCDCFD5D8DADEE4EBEFF3F7FE060D11171C242B333A4249463A393C393A42463C31262224261C110800F7EFE8E2DCDEDCDADCD8DCE4E6E0DCE0E4E9E9EDF3F5F8FE00FC00000006040404080B1317110B090600FEFCFCF8FC000600F8F5F8FCFCFEFE02060D0F15131111171C1C1C181E1A150D06090F0D06FEF7EFE9EFF3EFE9E8E6E9EDEFE9E4E8EDF1F7F8F7F8FE06080B06090908060B1317151A130F0F0D0F171811090909090B0F090D0B04FCF5F5FC00F8F7F7F1EBEBEFEFF7F7F3F5F5F7FE06000208090F0B0D131A1815171A180F0D131315150D06FCFAF5F7FAF3EDEFEFF1EFEBEBF1F1F5F7F1F1F3F5FAF7F80004090D0F0F0F090D131A17110D0B0F0F090F0B04FCF5F80000F8FAFEFEFCF5F5F7FCFE0000FEF7F7FE060B08080B0F1108040908080B0800FC00FEF7F8FEFAF7F3EDF1F3FAFCF8F3F3F5FAFAFE02FC000202020408040809090F130F11181A1A171513110B1315110902060604FEFCFAF3F1F1F1F1EFEFEDEFF5F3F7F5F3EFF1F8F8FAFC00FA000404020402040906060404090D0B060B0B08040408090D09090600020402FEFEF8FC02000202FEFE0004040006080802020406060400FAFCFAFC0202FAF8F8F8F3F5F5F1F3F7F7F5F8F8FAFAFCFAFA0208090F080B0D0D0D0F13110D0D0F0D0B0809090600000002FCFCFAF8FAFCFCF7F1F7F8FCFCFAF8F8F7F8FEFE000202020408090408090D0809090806060804FE000000FCF8F7F7F7F8FCFCFAF7FCFEFEFAFE0000FCFE06060404080B0B0D0B0906090D0D060604040400020200FCFAF8F8FCF8F7F5FAF8F7F5F3F5F8FAFAFCFEFAFEFEFCFAFE000004060404040404040404020202020202020202020202020202020202000000000000000000000000000000000000000000000000000000000000000000000000000000000000000000000000000000000000000000000000000000000000000000000000000000000000000000000000000000000000000000000000000000000000000000000000000000000000000000000000000000000000000000000000000000000000000000};

#A=x128 %4 @4 v15 @v20 na3 s36 @q0 q8 @k5
o5l8@q4
   dgbe4f#4f#f#f#4d2r
   dgbe4f#4f#1r
$
o5l8na1
   [ rf#a>d< rea>c#< rdf#b rc#f#a
   gb>d<g f#a>d<f# fa>c<a eac#a ]<
   rb>df#< rb->df#< ra>df#< rg#b>d
na3
   baga aaga f#1
@3na1
   c#<c#f#>c#^4<c#4> d<dg>d^4<d4>
   c#<c#f#a> c#<<a>ea f#<a>df# adf#a>
   bgdg af#d4 gd<b>d af#d4
   bgdg af#d4
@4na3
   bbbb>d<g4f#1r
;

#B=x128 %4 @4 v15 @v24 na1 s36 @q0 q8 p5
o6l8@q4
   @lfo11,2 mp0,18,320,60
   gb>dc#4d4dd<a4b2r
   gb>dc#4d4d1r
$
o5l8na2
   [ f#f#aa>e4c#d&d2..r<
   bb>ddf#4d<a2gg4.r ]
   f#edel4f#b>df#b2
   l8dc#<b>c#dc#<b>c#d1<

   aaara16r16f#ed1r
   aaar>edc#d2.r<b>c#
   dc#<b>c# dc#<b>c# dc#<b>c# dr<aa>
   dc#<b>c# dc#<b>c# dddd f#d4d1r
;

#C=x128 %1 @8,58,0,0,58 v15 @v70 @ph255 q8 @q0 
o4l8 @lfo11,2 mp0,16,420,60
   @q0g4.@q12a&a2
   @q0d4.@q12g&g2
   @q0g4.a2d1r
$   
   [ @q2dr4d c#r4c#<br4bar4a
   gr4gf#r4f#fr4far4a ]
   @q12bbbb b-b-b-b- aaaa a-a-a-a-
   gggg aaaa @q2d1
   f#r4f# r2 gr4g r2
   f#r4f# ar4a >dr4ddr4d<
   @q12gggg f#f#f#f# eeee f#f#f#f#
   gggg f#f#f#f# eeee aaaa @q2d1
;

#H=e;
#D=x128 v15 @v30 %1 @9 na9 o0
   l8HHHH4H4H HHHH4H4H HHHH4H4He4HHr2
$
   [ l8rHrHrHrl16HH ]8
   l8 [ H ]24 r1
   [ HHHHrHHr ]
   [ H ]15 r
   [ H ]38 r4
;

#Z=@10v14f#;
#S=@11v16f#;
#E=x128 v16 @v128 %4 @9 na10 o0
   l8Zr4Zr2 Zr4Zr2 Zr4ZrZrZ r2l16SSl8ZSZ
$
   [ l8Z4S8l16rZl8ZZS4 ]8
   [ l8Z4SZZ4S4 ]3 Z4SZl16SSl8SSS
   [ Z4SZ4S8S4 ]
   Z4SZZ4S4 Z4SZZSS4 [ Z4SZZ4S4 ]4 Z4SZZ4l16SSS8
;

t113
A;
B;
C;
D;
E;

