/*------------------------------------------
   『ゼルダの伝説』よりエンディングテーマ
   1986.02.21 任天堂／近藤浩治
   2011.06.17 MML Hautbois.
------------------------------------------*/

#TITLE{『ゼルダの伝説』よりエンディングテーマ};
#REV;
#FPS 600;
#QUANT 8;

#WAVB00{02050A0F141A1F252B3034383B3D3D3D3A36312A231B120900F7EFE6DFD8D2CDCAC7C5C3C2C1C1C1C1C1C2C3C3C4C5C5C6C8C9CBCDCFD1D3D6D8DADCDEDFE1E1E2E2E2E2E2E1E0E0DFDEDDDCDCDBDAD9D9D8D8D7D7D6D5D5D4D4D3D3D2D2D2D1D1D1D1D2D2D2D2D2D3D3D4D4D4D5D5D5D6D6D7D7D8D8D9D9DADADBDBDCDCDDDDDEDFE0E1E2E3E4E5E6E7E8E8E9E9EAE9E9E9E8E8E7E6E5E4E3E1E0DFDDDCDBD9D8D7D5D3D2D0CECCCAC9C7C5C4C3C2C1C1C1C1C1C2C2C3C4C5C5C6C7C8C8C9C9CACACACBCBCBCBCBCCCCCCCCCDCDCDCDCECECECFCFCFCFD0D0D1D1D2D2D3D4D5D7D9DBDDDFE1E4E6E9EBEEF0F2F3F5F5F6F7F7F8F8F8F8F7F7F6F5F4F3F1F0EDEBE8E5E1DDD9D4D0CBC6C2BDB9B5B1ADAAA6A39F9B9793908D8A878583828181828486898D91959A9EA3A8ACB0B4B7B9BCBEC0C2C4C5C7C8C9CACBCBCBCBCAC9C8C6C3C0BDB9B5B1ADA8A4A19D9A98959492918F8E8D8C8B8B8B8B8B8C8E8F9194979B9FA4A9AEB4BAC0C5CBD1D7DCE1E7ECF2F7FD02080E13191E23282C3135383C3F4346494C4F5153555656565655524F4B47423C363029231C16100A0501FDF9F5F1ECE8E5E1DEDAD7D5D2D0CFCDCDCDCDCECFD0D1D3D5D7D9DBDDDFE0E1E3E4E5E7E8E9EBECEDEEEFF0F1F1F1F1F1F0EFEEECEBE9E7E5E3E2E0DFDEDEDDDEDEDFE1E2E4E5E7E9EBEDEFF1F3F4F5F7F8F9FBFCFDFF0000010203040404050404040302010000FFFDFCFBF9F8F7F5F4F3F1EFEDEBE9E7E5E4E2E1DFDEDEDDDEDEDFE0E2E3E5E7E9EBECEEEFF0F1F1F1F1F1F0EFEEEDECEBE9E8E7E5E4E3E1E0DFDDDBD9D7D5D3D1D0CFCECDCDCDCDCFD0D2D5D7DADEE1E5E8ECF1F5F9FD01050A10161C232930363C42474B4F5255565656565553514F4C4946433F3C3835312C28231E19130E0802FDF7F2ECE7E1DCD7D1CBC5C0BAB4AEA9A49F9B9794918F8E8C8B8B8B8B8B8C8D8E8F91929495989A9DA1A4A8ADB1B5B9BDC0C3C6C8C9CACBCBCBCBCAC9C8C7C5C4C2C0BEBCB9B7B4B0ACA8A39E9A95918D898684828181828385878A8D9093979B9FA3A6AAADB1B5B9BDC2C6CBD0D4D9DDE1E5E8EBEDF0F1F3F4F5F6F7F7F8F8F8F8F7F7F6F5F5F3F2F0EEEBE9E6E4E1DFDDDBD9D7D5D4D3D2D2D1D1D0D0CFCFCFCFCECECECDCDCDCDCCCCCCCCCBCBCBCBCBCACACAC9C9C8C8C7C6C5C5C4C3C2C2C1C1C1C1C1C2C3C4C5C7C9CACCCED0D2D3D5D7D8D9DBDCDDDFE0E1E3E4E5E6E7E8E8E9E9E9EAE9E9E8E8E7E6E5E4E3E2E1E0DFDEDDDDDCDCDBDBDADAD9D9D8D8D7D7D6D6D5D5D5D4D4D4D3D3D2D2D2D2D2D1D1D1D1D2D2D2D3D3D4D4D5D5D6D7D7D8D8D9D9DADBDCDCDDDEDFE0E0E1E2E2E2E2E2E1E1DFDEDCDAD8D6D3D1CFCDCBC9C8C6C5C5C4C3C3C2C1C1C1C1C1C2C3C5C7CACDD2D8DFE6EFF70009121B232A31363A3D3D3D3B3834302B251F1A140F0A050200};
#WAVB01{7F80};

#TABLE0{(128,0)600|0};
#TABLE1{(50,128)40(128,90)100|90};
#TABLE2{(128,0)240|0};
#TABLE9{(10,40)2(40,10)10(10,0)10|0};

#M=%t0 x128 v16 @v60 %4 @0 q8 @q0 s60;
#A=M na0 @f102
r4r1
o6l16gf#d#<ag#>eg#>c&c2r1
na2o6l8@v50 [g<g>ced#<g>b<b >aceagcde | acfaa-cdf e<g>ced<ab>d]5
a(c(f(a(a-(c(d(f( e
;

#B=M @1 na1 @v20 s42 @p20
o5l12aa#b>c4.r8r2
l1rr
rrrr
rrrr
$
s32
o6l4 g.e8d#b l2ag l4a.b8>dc <g.e8d2
[q6gr12q8e24&e8q6d#r12q8d#24g12b24 q6ar12q8e24&e8q6gr |
q6ar12q8b24&l8bq8>dcr<a l4q6gr12q8e24&e8q6dr]
q6ar12q8b24&l8bq8>dcrd q7e4r2q8ee
d4c2<ba l4g.e8ae l8deff#l4ge c2.r4
;

#C=M @1 na1 @v20 s42 @p-20
o5l12cc#dd#4.r8r2
l1rr
rrrr
rrrr
$
s32
o6l4 e.c8<b>d# l2ee l4f.f8ff c.c8<b2>
[q6er12q8c24&c8q6<br12q8b24>d#12d#24 q6er12q8c24&c8q6er |
q6cr12q8d24&l8dq8ferc l4q6<br12q8g24&g8q6fr]
>q6cr12q8d24&l8dq8ferf q7<g#4r2q8g#g#
>f4f2ff l4c.<g8>c#<g l8fgaa#l4bg e8e12e24&e12f24g12f24e2
;

#D=M %1 @8,58,0,0,56 @v80 @ph255
o4l12ff#gg#4.r8r2
l1rr
rrr r2l8ro3q3@ph %t0 na3 gab
>cg<g>g<b>g<g>g cg<g>gccde f>c<c>c<f>c<c>c <e>c<<g>g<bgab
$
[>cg<g>g<b>g<g>g cg<g>gccde f>c<c>c<f>c<c>c | <e>c<<g>g<bgab]3
>e>e<b>e<e>e<b>e
<f>c<c>c<f>c<ed cg<g>g c#<gag>deff# g<gab>cq6c12q5c12r24q6d24e12d24q3c<gab
;

#H=e;
#E=M %1 @9 na9 o0
r4r1
l1rr
rrrr
rrrr
$
[[r8H12H24r8H8]8]4
;

t90
A;
B;
C;
D;
E;

#END;

