/*
   ゼルダの伝説 - オープニング
   [FC][FDS][ゼルダの伝説]
   2011.5.21 波形修正 Hautbois.
*/

#TITLE{ゼルダの伝説 - オープニング};

#REV;
#FPS  600;
#QUANT  16;
//#EFFECT0{reverb70,40,70,20};

// table env
#TABLE  0 { (64,128)120          | 128 };
#TABLE  1 { (128,90)20(90,32)240 | 32 };
#TABLE  2 { (128)10(40,128)60(128,90)60 | 90 };
#TABLE  3 { (70)8(70,40)8   | 0 };
#TABLE  4 { (90,32)240 | 32 };

#TABLE 10 { (3)10 | 3 };
#TABLE 11 { (4)10 | 3 };

//#WAVB0{07070404040101FEFEFEFAFAFAF7F7F4F4F4F1F1F1EEEEEEEBEBE8E8E8E5E5E5E2E2E2DFDFDCDCDCD9D9D9D6D6D3D3D3D0D0D0CDCDCDCBCBC8C8C8C5C5C5C3C3C3C0C0BDBDBDBBBBBBB8B8B5B5B5B3B3B3B0B0B0AEAEABABABA9A9A9A7A7A4A4A4A2A2A29F9F9F9D9D9B9B9B989898969696949492929291919190908E8E8E8C8C8C8B8B8B8B8BBDBDBDF9F9F91E1E3E3E3E5252526262626C6C7474747979797B7B7B7C7C7C7C7C7B7B7B79797676767474747070706D6D69696965656561615D5D5D59595955555551514E4E4E4A4A4A46464642423E3E3E3A3A3A36363232322E2E2E2B2B2B27272323232020201C1C1C19191515151212120E0E0B0B0B08};
//#WAVB1{0020585C4E525654504A525E5A58544448687E625A74764E24143E584E4650443C4450464E583E14244E76745A627E68484454585A5E524A505456524E5C5820};
//#WAVB2{0002182C40484E4E545E5E6460666C746C6E6264687A7E7E76706A66605E52464646525E60666A70767E7E7A6864626E6C746C6660645E5E544E4E48402C1802};
#WAVB3{7f80};
#WAVB4{7f80808080808080};

#WAVB0{FCF6F0E8DFD6CDC4BAB1A8A098918C87848281808080818283858688898A8B8B8C8C8C8C8D8D8D8D8E8E8E8E8F8F8F8F9090909091919191919292929393939394949595969697979899999A9A9B9B9B9C9C9C9D9D9D9D9D9E9E9E9E9F9F9F9FA0A0A1A1A2A2A3A3A4A4A5A5A6A6A7A7A8A8A9A9AAAAABABACACADADAEAEAFAFB0B1B2B2B3B4B5B5B6B7B8B9B9BABBBBBCBDBDBEBEBFBFBFC0C0C1C1C2C2C3C3C4C5C5C6C7C7C8C9C9CACBCCCDCECFCFD1D2D3D4D5D6D7D8D9DBDCDDDFE0E2E3E5E7E9EAECEEF0F2F4F6F8FAFDFF000305070A0D101215181B1E212427292C2F313336383A3D3F414346484A4C4E50535557595B5D60626466686A6C6E6F71737475767778797A7B7B7C7C7D7D7E7E7F7F7F7F7F7F7F7F7F7F7F7F7F7F7F7F7F7E7E7E7E7E7D7D7D7C7C7C7C7B7B7B7B7A7A7A7A7A7979797979787878777777767575747373727170706F6E6D6C6B6B6A696867666564636261605F5E5D5C5B595857565554535251504F4E4D4C4B4B4A494847464645444443424141403F3F3E3D3C3C3B3A39393837363635343333323130302F2E2D2D2C2B2A2A2928272726252423232221201F1F1E1D1D1C1B1B1A191918181717171616151514141313121110100F0E0E0D0C0B0A0A090807070605040403030201010000FFFEFEFDFBFAF9F7F6F4F2F0EEEDEBE9E8E6E5E4E3E3E3E3E3E3E3E4E4E5E5E6E6E7E7E7E7E7E7E7E6E6E5E5E4E4E3E3E3E3E3E3E3E4E5E6E8E9EBEDEEF0F2F4F6F7F9FAFBFDFEFEFF0000010102030304040506070708090A0A0B0C0D0E0E0F101011121313141415151616171717181819191A1B1B1C1D1D1E1F1F2021222323242526272728292A2A2B2C2D2D2E2F30303132333334353636373839393A3B3C3C3D3E3F3F404141424344444546464748494A4B4B4C4D4E4F505152535455565758595B5C5D5E5F606162636465666768696A6B6B6C6D6E6F7070717273737475757677777778787879797979797A7A7A7A7A7B7B7B7B7C7C7C7C7D7D7D7E7E7E7E7E7F7F7F7F7F7F7F7F7F7F7F7F7F7F7F7F7F7E7E7D7D7C7C7B7B7A79787776757473716F6E6C6A68666462605D5B59575553504E4C4A484643413F3D3A383633312F2C292724211E1B181512100D0A07050300FFFDFAF8F6F4F2F0EEECEAE9E7E5E3E2E0DFDDDCDBD9D8D7D6D5D4D3D2D1CFCFCECDCCCBCAC9C9C8C7C7C6C5C5C4C3C3C2C2C1C1C0C0BFBFBFBEBEBDBDBCBBBBBAB9B9B8B7B6B5B5B4B3B2B2B1B0AFAFAEAEADADACACABABAAAAA9A9A8A8A7A7A6A6A5A5A4A4A3A3A2A2A1A1A0A09F9F9F9F9E9E9E9E9D9D9D9D9D9C9C9C9B9B9B9A9A9999989797969695959494939393939292929191919191909090908F8F8F8F8E8E8E8E8D8D8D8D8C8C8C8C8B8B8A89888685838281808080818284878C9198A0A8B1BAC4CDD6DFE8F0F6FC00};
#WAVB1{FEFBF6F1ECE6E1DBD5D0CCC8C5C3C3C3C6CACFD6DDE5EEF70009111A21282E3336393B3D3E3F3F3F3F3F3E3D3D3C3B3B3A38373533312F2D2A28262422211F1F1E1E1E1E1E1F2020212223242425262727282829292A2B2B2C2C2D2D2E2E2E2F2F2F2F2E2E2E2E2E2D2D2C2C2C2B2B2B2A2A29292828272726262525242423232221201F1E1D1C1B1A1918181717161717171818191A1B1C1D1F20212324252728292B2D2E3032343637393B3C3D3E3F3F3F3F3F3E3E3D3C3B3B3A3938383737363636353535353534343434333333333232323131313130302F2F2E2E2D2C2B29272523211F1C1A171512100E0D0B0B0A09090808080809090A0B0C0D0F101315181B1F23272C30353A3E43474B4F53565A5D6165696D707376797B7D7E7F7F7E7C7A77736F6B66625D5854504C49474442403E3C3B39383736353535353637383A3D4043474B4F53585C5F6366686B6C6E6F7172737475757575757472716F6C6965615C57524C46403B352F29241F19140E0903FEF8F2EDE7E2DDD8D4CFCBC8C4C1BDBAB7B4B1AFADABAAAAAAAAABAEB1B5B9BEC4CAD0D7DDE4EAF0F6FBFF03070B0F14181B1F2226292B2E3031333333333231302F2D2B2927252321201F1D1C1B1918171514131211100F0F0F0F0F101112141517191B1D1E20212222232222211F1E1C1B19171513110F0D0C0B090807050403010000FFFEFDFCFCFCFBFCFCFCFDFEFF0000010304050708090B0C0D0F11131517191B1C1E1F21222223222221201E1D1B191715141211100F0F0F0F0F1011121314151718191B1C1D1F2021232527292B2D2F3031323333333331302E2B2926221F1B18140F0B0703FFFBF6F0EAE4DDD7D0CAC4BEB9B5B1AEABAAAAAAAAABADAFB1B4B7BABDC1C4C8CBCFD4D8DDE2E7EDF2F8FE03090E14191F24292F353B40464C52575C6165696C6F7172747575757575747372716F6E6C6B6866635F5C58534F4B4743403D3A38373635353535363738393B3C3E40424447494C5054585D62666B6F73777A7C7E7F7F7E7D7B797673706D6965615D5A56534F4B47433E3A35302C27231F1B181513100F0D0C0B0A09090808080809090A0B0B0D0E101215171A1C1F21232527292B2C2D2E2E2F2F3030313131313232323333333334343434353535353536363637373838393A3B3B3C3D3E3E3F3F3F3F3F3E3D3C3B3937363432302E2D2B29282725242321201F1D1C1B1A1918181717171617171818191A1B1C1D1E1F20212223232424252526262727282829292A2A2B2B2B2C2C2C2D2D2E2E2E2E2E2F2F2F2F2E2E2E2D2D2C2C2B2B2A2929282827272625242423222120201F1E1E1E1E1E1F1F21222426282A2D2F31333537383A3B3B3C3D3D3E3F3F3F3F3F3E3D3B3936332E28211A110900F7EEE5DDD6CFCAC6C3C3C3C5C8CCD0D5DBE1E6ECF1F6FBFE00};
#WAVB2{FCF6EFE7DED5CBC1B8AEA59D96908B8786858687898C9093989CA1A5A9ADB1B3B6B9BBBEC0C3C5C8CACDCFD2D4D7D9DBDEE1E3E6E9ECEEF1F4F6F9FBFD00010304060708090A0B0C0D0E0F0F10111213131415161718191A1A1B1C1C1D1E1E1F1F1F1F1F1F1F1F1F1E1E1E1E1E1E1E1F1F1F2020212222232425262728292A2B2C2D2E2F313234353738393B3C3D3E3F3F3F4040403F3F3F3F3F3E3E3E3E3E3F3F4040414243444546474849494A4A4B4B4A4A49494847474645444443434243434344444546464748494A4B4C4D4E4F4F505151525354545556565758595A5B5B5D5E5F6062636465676869696A6A6B6A6A69686766656362605F5E5D5C5B5B5A5A5A5B5B5C5C5D5E5E5F5F5F5F5F5F5E5D5B5A58565453514F4D4B4A484747464645454646464747474849494A4A4B4B4B4B4C4C4C4C4D4D4D4E4E4F5051535456585A5D5F6265676A6C6F7173757778797A7B7B7C7C7D7D7D7E7E7E7E7E7F7F7F7F7F7F7F7F7F7F7F7F7F7F7F7F7F7E7D7C7C7B7978777675747371706F6F6E6D6C6B6A6A696868676665656463636261605F5F5E5D5C5B5B5A595958575756555554545353535252515150504F4F4E4D4C4C4B4A4948474746454444434342424241414141414141414140403F3F3E3C3B3A3837353432302F2D2B2A2827252322201E1C1B191716141312100F0F0E0D0D0D0D0D0D0D0D0D0E0E0E0E0E0F0E0E0E0E0E0D0D0D0D0D0D0D0D0D0E0F0F101213141617191B1C1E2022232527282A2B2D2F3032343537383A3B3C3E3F3F4040414141414141414141424242434344444546474748494A4B4C4C4D4E4F4F505051515252535353545455555657575859595A5B5B5C5D5E5F5F606162636364656566676868696A6A6B6C6D6E6F6F7071737475767778797B7C7C7D7E7F7F7F7F7F7F7F7F7F7F7F7F7F7F7F7F7F7E7E7E7E7E7D7D7D7C7C7B7B7A7978777573716F6C6A6765625F5D5A5856545351504F4E4E4D4D4D4C4C4C4C4B4B4B4B4A4A494948474747464646454546464747484A4B4D4F51535456585A5B5D5E5F5F5F5F5F5F5E5E5D5C5C5B5B5A5A5A5B5B5C5D5E5F60626365666768696A6A6B6A6A6969686765646362605F5E5D5B5B5A595857565655545453525151504F4F4E4D4C4B4A49484746464544444343434243434444454647474849494A4A4B4B4A4A4949484746454443424140403F3F3E3E3E3E3E3F3F3F3F3F4040403F3F3F3E3D3C3B393837353432312F2E2D2C2B2A2928272625242322222120201F1F1F1E1E1E1E1E1E1E1F1F1F1F1F1F1F1F1F1E1E1D1C1C1B1A1A19181716151413131211100F0F0E0D0C0B0A0908070604030100FDFBF9F6F4F1EEECE9E6E3E1DEDBD9D7D4D2CFCDCAC8C5C3C0BEBBB9B6B3B1ADA9A5A19C9893908C8987868586878B90969DA5AEB8C1CBD5DEE7EFF6FC00};

#A=@v80 
v16 x128
%4
$
o5 @0 na0
@lfo10,2 mp0,32,400,300
l8q16s28b-4..r.s63ffb-   l16a-g-s28a-2r4.
l8q16s28b-4..r.s63g-g-b- l16a g s28a 2r4.

o4l2q10
@1 na1
@lfo0 mp0,0,0,0
d-d-d-d-
o5l16q16 [r4b-4f4.r4b-8b->cde-f4&f8r8<]

@2 na0
@lfo10,2 mp0,32,400,300
q15
o5l8b-rf4&l16frb-8b->cde- f2l8rfl12fg-a-
l8b-4.&b-l12rrb-b-a-g- a-8l16rg-f4.r8f4
l16e-8e-fq12g-2l8q15fe- d-l16d-e-q12f2l8q15e-d-
cl16cdq10e2q15g4 l16fr<ff frff frff frff
o5l8b-rf4&l16frb-8b->cde- f2l8rfl12fg-a-
b-2l4r>d- l8cr<q12a2q15f4
g-2l4rb- l8arq12f2q15f4
g-2l4rb- l8arq12f2q15d4
l4e-2rg- l8frq12d-2<q15b-4>
c8l16cde2g4 l16fr<ff frff frff frff
;

#B=@v50 
v10 x128
%4 @3 na1 s32
$
q15o3l4
b->fb-2< a->e-a-2<
g->d-g-2< f>cf2
o4l16q15 [3frf<b->]3 f<b->f<b-> [frf<b->]3 f<b->f<b->
o4l16q15
[frf<b->]3 f<b->f<b-> [e-re-<a->]3 e-<a->e-<a->
[d-rd-<g->]3 d-<g->d-<g-> [crc<f>]3 c<f>c<f>
[frf<b->]3f<b->f<b-> [e-re-<a->]3e-<a->e-<a->
[d-rd-<g->]3d-<g->d-<g-> [a-ra-d-]3a-d-a-d-
[g-rg-<b>]3g-<b>g-<b> [frf<b->]3f<b->f<b->
[3grgc]3gcgc  drddd-rd-d-crcc<brbb>
[frf<b->]3f<b->f<b-> [e-re-<a->]3e-<a->e-<a->
[d-rd-<g->]3d-<g->d-<g-> [crc<f>]3c<f>c<f>
<[brbe]3bebe>[crc<f>]3c<f>c<f>
<[brbe]3bebe> [crc<f>]3c<f>c<f>
[g-rg-<b>]3g-<b>g-<b>[frf<b->]3f<b->f<b-> 
[grgc]3gcgc drddd-rd-d-crcc<brbb>
;

#C=@v50 
v10 x128
%4 @3 @@11 na2 s32
$
q15o5
l8d2&dddd l16ccc8&c2&c4
l8d-2&d-d-d-d- l16 l16ccc8&c2&c4
r1r1
o5l16q15[b-4f4.b-8b->cde-f2.&fr8.<]

o5l12q15 d4ddcd4l16de-fg
a-8.b-b->cde-f4<l12a-b->c<
g-8.l16g-g-a-b->cd-8.d-l12d-c<b->
d-8.<b-16l12a-a-g-a-6a-a-g-a-
l16g-8g-fg-8g-a-b-4l8a-g-
fl16fe-f8fg-a-4l8g-f
e4el16efg8gal8b->c<<
l16araaa-ra-a-grggg-rg-g-

o5l12q15 d4ddcd4l16de-fg
a-8.b-b->cde-f4<l12a-b->c<
d-2.l4e4e-c2<a
@@10na4
[o3l12eb->d-eb->d-l8er4. frl12<ffff8r4.]

@@11na2
o5l4g-2.b b-f2d-
e4e8l16efg8gal8b->c<<l16araaa-ra-a-grggg-rg-g-
;

#D=@v100 
v16 x128
%1 @8,60,0,0,50
$
o3l8q15b-2..&b- a-2..&a-
g-2..&g- f2..&f
o3l16q14 [b-rb-b-]4[b-rb-b-]4
o3l16q14 [b-rb-b-]4[a-ra-a-]4[g-rg-g-]4[frff]4
o3l16q14 [b-rb-b-]4[a-ra-a-]4[g-rg-g-]4>[d-rd-d-]4
o3l16q14 [brbb]4[b-rb-b-]4>[4crcc]fr<fffrfffrfffrga
o3l16q14 [b-rb-b-]4[a-ra-a-]4[g-rg-g-]4[frff]4
o3l16q14 [[eree]4[frff]4]2
o3l16q14 [brbb]4[b-rb-b-]4>[crcc]4fr<fffrfffrfffrga
;

#E=@v100 
v7 x128
%1 @9 na3
o0
$
l1rrrr
o0l16q8 
[drdd]8
[drdd]16
[drdd]16
[drdd]16
[drdd]16
[drdd]16
[drdd]16
;

t88
A;
@p10 B;
@p-10 C;
D;
E;

#END;
