/*
   [AC] GRADIUS - Beginning of the History - (空中戦BGM) (C)KONAMI 1985 by LinearDrive
   date:2011-03-25
   JASRAC:033-1694-7
*/


#TITLE{[AC] GRADIUS - Beginning of the History - (空中戦BGM) (C)KONAMI 1985};
#REV;
#TMODE{unit=100};
#QUANT 16;


/* 0005289 波形データ */
#WAVB  0 {F080F020405060504020F0C0A0908090A0C0F03050605030F0B0908090B0F060};
#WAVB  1 {B090F0604010406020F0407050002030F0A0005010C0D0F0A080B000D090B0E0};
#WAVB  2 {C0F020404020F0F0003050605020E0D0D0F0101000C0908090B0E0F0F0C0A0A0};
#WAVB  3 {C0D0F0102030405050606060505040302010F0D0C0B0A090908080809090A0B0};
#WAVB  4 {8080000000000070700000808080000000007070700080800000000070700000};
#WAVB  5 {8080000000800070707000000080000000808080800080800000000080808000};
#WAVB  6 {707080809090A0A0B0B0C0C0D0D0E0E0F0F00000101020203030404050506060};
#WAVB  7 {8080606060606060606080808080808080806060608080806060606060808080};
#WAVB  8 {F080F020405060504020F0C0A0908090A0C0F03050605030F0B0908090B0F060};
#WAVB  9 {B090F0604010406020F0407050002030F0A0005010C0D0F0A080B000D090B0E0};
#WAVB 10 {C0F020404020F0F0003050605020E0D0D0F0101000C0908090B0E0F0F0C0A0A0};
#WAVB 11 {6050A0909090A0A0B0B0C0C0D0D0E0E0F0F00000101020203030404050506060};
#WAVB 12 {8080707070708080808080808080808080808080808080808080808080808080};
#WAVB 13 {8080707070707070707080808080808080808080808080808080808080808080};
#WAVB 14 {F0D0F0002030F05050F060F05050F0302010F0D0F0B0F090F080F080F090F0B0};
#WAVB 15 {80807070608090908080404030809090808020201080909080800000F0809090};


/* シーケンサ初期化
   AY3-8910:v-scale=-3dB/vstep
   0005289 :v-scale=-1.25dB/vstep (0.25dB*5vstep)
   113(v16) 108 103 98 93 88 83 78 73 68 63 58 53 48 43 38 0
*/
#I= %8 @8,63,0,0,63,0 %v3,4 %x1 v0 x128 q16 @q0 o5 kt0 k0;
#J= %4 @0,63,0,0,63,0 %v4,1 %x1 v0 x128 q16 @q0 o5 kt0 k0;


/* 音長制御用 */
#Q= q2;
#R= q16;


/* AY3-8910 ch.1 (iv11) */
#A=
   I l16 @8,63,0,0,30,0 v14 o5
   R b4.&) b4.rr Q br (
   R a4.&) a4.rr Q ar (
   R g4.&) g4.rr Q gr (
   R a4.&( a4.rr Q ar )
   @8,63,0,0,33,0 <
   Q
   $
   [ bb>ee< ]8 aa>dd<aa>dd<aa>dd<eeaa   eeaaeeaaeeaaeeaa
   [ bb>ee< ]8 aa>dd<aa>dd<aa>dd<gg>cc< gg>cc<ffa+a+ffa+a+d+d+g+g+
;


/* AY3-8910 ch.2 (iv11) */
#B=
   I l16 @8,63,0,0,29,0 v14 o7
   Q
   [e<b>ef+rbrf+rer<b>e<b>ef+]3
   e<b>e (f+rbrf+r (er<b>e< (b>ef+ ))) <
   $
   [g+f+g+a+rbra+rg+rf+g+f+g+e]2
   f+ef+g+rarg+rf+rg+f+ e  R  ((e8&)e8&)e4r8  Q  c+d+ef+red+c+
   [g+f+g+a+rbra+rg+rf+g+f+g+e]2
   f+ef+g+rar R g+.r. Q f+rg+ R e4r Q f+e R d4&dr Q edccd+g  /*g+&*/
;


/* AY3-8910 ch.3 (iv9) */
#C=
   I l16 @8,63,0,0,30,0 v12 o5
   R e4.&) e4.rr Q er (
   R d4.&) d4.rr Q dr (
   R c4.&) c4.rr Q cr (
   R d4.&( d4.rr Q dr )
   R
   $
   [e8rr]8 [d8rr]3 < [a8rr]5 >
   [e8rr]8 [d8rr]3 c8rr c8rr < a+8rr a+8rr g+8rr >
;


/* 0005289 ch.1 (iv12) */
#D=
   J l16 @11,63,0,0,29,0 v93 o5 k8
   R b4.& b4.rr Q br
   R a4.& a4.rr Q ar
   R g4.& g4.rr Q gr
   R a4.& a4.rr Q ar
   Q
   $
   [ bb>ee< ]8 aa>dd<aa>dd<aa>dd<eeaa   eeaaeeaaeeaaeeaa
   [ bb>ee< ]8 aa>dd<aa>dd<aa>dd<gg>cc< gg>cc<ffa+a+ffa+a+d+d+g+g+
;


/* 0005289 ch.2 (iv12) */
#E=
   J l16 @14,63,0,0,29,0 v93 o6 k4
   Q
   [e<b>ef+rbrf+rer<b>e<b>ef+]3
   e<b>e (5 f+rbrf+r (5 er<b>e< (5 b>ef+ )15 <
   $
   [g+f+g+a+rbra+rg+rf+g+f+g+e]2
   f+ef+g+rarg+rf+rg+f+ e R (10 e8& )5 e8& )5 e4r8 Q c+d+ef+red+c+
   [g+f+g+a+rbra+rg+rf+g+f+g+e]2
   f+ef+g+rar R g+.r. Q f+rg+ R e4r Q f+e R d4&dr Q edccd+g  /*g+&*/
;


/* 再生 */
t11700
A;
B;
C;
D;
E;


#END;
