/*
   メトロイド - エンディング
   [FC][FDS][メトロイド]
   2011.5.10 修正 Hautbois
   2011.5.24 波形修正64->256
   2011.6.17 波形修正6bit64サンプル->8bit1024サンプル補間
*/

#TITLE{メトロイド - エンディング};

#REV;
#FPS  600;
#QUANT  16;
//#EFFECT0{reverb70,40,80,30};

// table env
#TABLE  0 { (64,128)120     | 128 };
#TABLE  1 { (128,100)160    | 100 };
#TABLE  2 { (64,128)80      | 128 };
#TABLE  3 { (70)8(70,40)8   | 0 };
#TABLE  4 { (70)8(70,0)90   | 0 };
#TABLE  5 { (128)8(128,64)8 | 0 };

#TABLE 10 { (128,10)30(10)360(20,0)30 | 0};
#TABLE 11 { (100,10)30(10)360(10,0)30 | 0};

#WAVB0{9E9E9E9E9E9F9F9FA0A0A0A0A1A1A1A1A2A2A2A3A3A3A3A4A4A4A5A5A5A5A5A5A6A6A6A6A6A6A6A5A5A5A5A5A5A5A5A5A6A6A6A6A6A7A7A7A8A8A8A8A9A9A9A9AAAAAAAAABABABABACACACACADADADADAEAEAEAEAFAFAFAFB0B0B0B0B1B1B1B1B2B2B2B2B3B3B3B3B4B4B4B4B5B5B5B5B6B6B6B6B7B7B7B7B8B8B8B8B9B9B9B9BABABABABBBBBBBBBCBCBCBCBDBDBDBDBEBEBEBEBFBFBFBFC0C0C0C0C1C1C1C1C2C2C2C2C3C3C3C3C4C4C4C4C5C5C5C5C6C6C6C6C7C7C7C7C8C8C8C8C9C9C9C9CACACACACBCBCBCBCCCCCCCCCDCDCDCDCECECECECFCFCFCFD0D0D0D0D1D1D1D1D2D2D2D2D3D3D3D3D4D4D4D4D5D5D5D5D6D6D6D6D7D7D7D7D8D8D8D8D9D9D9D9DADADADADBDBDBDBDCDCDCDCDDDDDDDDDEDEDEDEDFDFDFDFE0E0E0E0E1E1E1E1E2E2E2E2E3E3E3E3E4E4E4E4E5E5E5E5E6E6E6E6E7E7E7E7E8E8E8E8E9E9E9E9EAEAEAEAEBEBEBEBECECECECEDEDEDEDEEEEEEEEEFEFEFEFF0F0F0F0F1F1F1F1F2F2F2F2F3F3F3F3F4F4F4F4F5F5F5F5F6F6F6F6F7F7F7F7F8F8F8F8F9F9F9F9FAFAFAFAFBFBFBFBFCFCFCFCFDFDFDFDFEFEFEFEFFFFFFFF000000000000000101010102020202030303030404040405050505060606060707070708080808090909090A0A0A0A0B0B0B0B0C0C0C0C0D0D0D0D0E0E0E0E0F0F0F0F101010101111111112121212131313131414141415151515161616161717171718181818191919191A1A1A1A1B1B1B1B1C1C1C1C1D1D1D1D1E1E1E1E1F1F1F1F202020202121212122222222232323232424242425252525262626262727272728282828292929292A2A2A2A2B2B2B2B2C2C2C2C2D2D2D2D2E2E2E2E2F2F2F2F303030303131313132323232333333333434343435353535363636363737373738383838393939393A3A3A3A3B3B3B3B3C3C3C3C3D3D3D3D3E3E3E3E3F3F3F3F404040404141414142424242434343434444444445454545464646464747474748484848494949494A4A4A4A4B4B4B4B4C4C4C4C4D4D4D4D4E4E4E4E4F4F4F4F505050505151515152525252535353535454545455555555565656565757575758585858595959595A5A5A5A5B5B5B5B5C5C5C5C5D5D5D5D5E5E5E5E5F5F5F5F606060606161616162626262636363636464646465656565666666666767676768686868696969696A6A6A6A6B6B6B6B6C6C6C6C6D6D6D6D6E6E6E6E6F6F6F6F707070707171717172727272737373737474747475757677787A7B7D7E7F7F7F7F7F7E7C79746E665E554B40362C2219110A0501000003080F161F29333C464E555B5F61615D574F44392C1E1002F6E8DCD2C9C2BDBBBBBDC0C4C9CED5DBE2E9EFF5FAFE00010304040404040403020201000000000000000000000000000000000000000000000000000000000000FFFEFCFBF8F5F2EDE7E1D9D2CAC3BBB4AEA8A4A09E9D};
#WAVB1{7f808080};
#WAVB2{7f80808080808080};

#A= @v100
v16 x128 q16
%4
@0 na0 _na10 s0
o4l1 [ a>c<bb- ]2 aa
[ o5l16 f#a>df#l4agf# d1< l16ef#ga>l4d<a>l16gf#d<a l2g>d ]2
o6l4q16 [ c#2d<a> f#egf# l8ed<b-gl4f#>d< l8g#b>l4ede ]2
o4l2 [ a>c<bb- ]4
o4d1&d8r4.r2r1r1
o5l8 d4.<ad2& dr4.g4.f# <l6da>df#a>d e4.l8<b-g2
a2a4.r l6gf#dede d1 gb->dgb->d
l16q16 [ o5f#af#aabab>dedeef#ef# ]8
o4l8q16 [ a1 >d2c#4.<b a1 d2g4.f# ]
o4l6q16 a1 cg>c<dg>c d1 fc<g>gec d1<
l4dag>c l16q15 [ eeer r8ee eree eeer ]
q16e1 r4 q15<drdd<q14d8. r2v0d
;

#B= @v40 @k3 @p20
v12 x128
%4 @1 na1 _na11 s0
o3l16q12 [ aaar8.aaaraaaaar ]10
o4q16l4
[ a>f#ec#< l16f#a>df#l4af#d l8<b4.>d<l16ef#gaa4 b4.>d8<l4 a>g< ]
o3l4q15  ggf#f# >cc<bb b-b-aa g#g#aa
o4l16q12 [ aaar r8aa araa aaar]>[dddr r8dd drdd dddr ]
o4l2q16 [ f#ggg ]4
o7l4q16 [ agf#e gf#de ]6
[ o4l8q16 dddd<rf#f#f# eeeeaaaa rf#f#f#f#f#f#f# l6gdeb-ag ]2
l16q16 [ o5f#af#aabab>dedeef#ef# ]8
o4l16q15 [ dddr r8dd drdd dddr <b-b-b-r r8b-b->crcc cccr ]3
[ dddr r8dd drdd dddr ]
<q16d1 r4q15drddq14d8. r2v0d
;

#C= @v40 @k-3 @p-20
v10 x128
%4 @2 na2 _na10 s0
o4l1q16 [ eaa-g ] ee
o5 [ l16q16df#a>dl4f#ed< l2af# bd4>d8l16<ag l2eb ]
o5l4q16 [ e2f#d dced b-eda l8fg#l4b gg ]
o5l4q16 [ da>d<a ]8
o6q16l2 [ d1 eg f#1 gb- ]3
o6l8q16 [ a<a>g<a>f#<a>e<a> g<g>f#<g>d<g>e<g> ]8
o5l16q15 [ aaar r8aa araa aaar fffr r8ff grgg gggr ]3
[ aaar r8aa araa aaar ]
<q16a1 r4q15araaq14a8. r2v0a
;

#D= @v90
v16 x128
%1 @8,60,0,0,60
o3l16q12 [ aaar8.aaaraaaaar ]10
o4l4q12 [ ddc#c#< bbaa ggf#f# eeaa> ]
o3l4q12 [ ggf#f# >cc<bb b-b-aa g#g#aa ]
o3l16q12 [ drdd ]32
o6l16q4 [ ddaa>dd<aa ]24
[ o4l8q12 dddd<rf#f#f# eeeeaaaa rf#f#f#f#f#f#f# l6gdeb-ag ]4
o3l16q12 [ dddr r8dd drdd dddr <b-b-b-r r8b-b->crcc cccr ]3
[ dddr r8dd drdd dddr ]
d8r2..r4 drddq14d8.
;

#O=na4d;
#H=na3d;
#S=na5g#;

#E= @v90
v7 x128
%1 @9 @ph-1
o0
l16q12 [ HHHr r8HH HrHH HHHr ]10
l4[  H  O]16
l4[  H  O]16
l16[  [ HrHH ]3  O8  HH ]8
l4  [ H ]16 l8 [ H ]64
l16 [  HH  O8 SH O8 ]32
l16  [ HHHr r8HH HrHH HHHr ]8
O1 r4 OrOOO
;

t128
A;
B;
C;
D;
E;

#END;

