/*
   光神話 パルテナの鏡 - オープニング
   [FC][FDS][パルテナの鏡]
   2011.5.21 波形修正64->256
   2011.6.17 波形修正6bit64サンプル->8bit1024サンプル補間
*/

#TITLE{光神話 パルテナの鏡 - オープニング};

#REV;
#FPS  600;
#QUANT  16;
//#EFFECT0{reverb70,40,60,20};

// table env
#TABLE  0 { (20,128)80          | 128 };
#TABLE  1 { (64,128)60(128,90)60 | 90 };
#TABLE  2 { (70)8(70,40)8   | 0 };

#TABLE 10 { (128,10)20(10)360(20,0)30 | 0};
#TABLE 11 { (90,10)20(10)360(10,0)30 | 0};

//#WAVB0{000001010303030406060707080809090A0A0A0B0C0C0C0C0D0E0E0E101010101111111112121212131313131414141415151514151515151616161616171616171717171717171718181717181818171818181818181818181A18181A1A18181A1A18181A1A18181A1A1A181A1A18181A1A18181A1A18181A1A1818181818181818181818181818181818171818181718181817181817171718171717171717171717161717171617171616171716161616161615141303C79B8D83838386888C8F9294999B9EA2A5A8ABADB1B5B7BABCBFC1C3C5C9CACBCDCECFD0D3D5D6D8DADBDDDFE0E2E3E4E6E8E9EAEBEDEEEEF0F2F3F3F5F6F7F7F8F9FAFAFCFDFEFE};
//#WAVB1{7f808080};
#WAVB1{002040607f7f7f7f7f7f7f7f7f7f60402000e0c0a080808080808080808080808080808080808080808080808080808080808080808080808080808080808080a0c0e000};

#WAVB0{FCF6EFE7DFD6CCC3B9B0A79E96908A85828080808080808081828486878889898A8A8A8A8B8B8B8B8C8C8C8C8D8D8D8D8E8E8E8E8F8F8F8F90909090919191919292929293939393939494949595959596969797989899999A9B9B9C9C9D9D9D9E9E9E9F9F9FA0A0A0A0A0A1A1A1A1A1A2A2A2A3A3A3A3A4A4A4A5A5A5A5A5A5A6A6A6A6A6A6A6A5A5A5A5A5A5A5A5A5A6A6A6A6A6A7A7A7A8A8A8A8A9A9A9A9AAAAAAAAABABABABACACACACADADADADAEAEAEAEAFAFAFAFB0B0B0B0B1B1B1B1B2B2B2B2B3B3B3B3B4B4B4B4B5B5B5B5B6B6B6B6B7B7B7B7B8B8B8B8B9B9B9B9BABABABABBBBBBBBBCBCBCBCBDBDBDBDBEBEBEBEBFBFBFBFC0C0C0C0C1C1C1C1C2C2C2C2C3C3C3C3C4C4C4C4C5C5C5C5C6C6C6C6C7C7C7C7C8C8C8C8C9C9C9C9CACACACACBCBCBCBCCCCCCCCCDCDCDCDCECECECECFCFCFCFD0D0D0D0D1D1D1D1D2D2D2D2D3D3D3D3D4D4D4D4D5D5D5D5D6D6D6D6D7D7D7D7D8D8D8D8D9D9D9D9DADADADADBDBDBDBDCDCDCDCDDDDDDDDDEDEDEDEDFDFDFDFE0E0E0E0E1E1E1E1E2E2E2E2E3E3E3E3E4E4E4E4E5E5E5E5E6E6E6E6E7E7E7E7E8E8E8E8E9E9E9E9EAEAEAEAEBEBEBEBECECECECEDEDEDEDEEEEEEEEEFEFEFEFF0F0F0F0F1F1F1F1F2F2F2F2F3F3F3F3F4F4F4F4F5F5F5F5F6F6F6F6F7F7F7F7F8F8F8F8F9F9F9F9FAFAFAFAFBFBFBFBFCFCFCFCFDFDFDFDFEFEFEFEFFFFFFFF000000000000000101010102020202030303030404040405050505060606060707070708080808090909090A0A0A0A0B0B0B0B0C0C0C0C0D0D0D0D0E0E0E0E0F0F0F0F101010101111111112121212131313131414141415151515161616161717171718181818191919191A1A1A1A1B1B1B1B1C1C1C1C1D1D1D1D1E1E1E1E1F1F1F1F202020202121212122222222232323232424242425252525262626262727272728282828292929292A2A2A2A2B2B2B2B2C2C2C2C2D2D2D2D2E2E2E2E2F2F2F2F303030303131313132323232333333333434343435353535363636363737373738383838393939393A3A3A3A3B3B3B3B3C3C3C3C3D3D3D3D3E3E3E3E3F3F3F3F404040404141414142424242434343434444444445454545464646464747474748484848494949494A4A4A4A4B4B4B4B4C4C4C4C4D4D4D4D4E4E4E4E4F4F4F4F505050505151515152525252535353535454545455555555565656565757575758585858595959595A5A5A5A5B5B5B5B5C5C5C5C5D5D5D5D5E5E5E5E5F5F5F5F606060606161616162626262636363636464646465656565666666666767676768686868696969696A6A6A6A6B6B6B6B6C6C6C6C6D6D6D6D6E6E6E6E6F6F6F6F707070707171717172727272737373737474747475757677787A7B7D7E7F7F7F7F7F7E7C79746F6860584F463C332A2118100A0400FDFBF9F8F8F8F8F9FAFBFCFEFF000000};

#A=
v16 x128
%4 @0 na0 _na10 s0
$
l1q16rrrr o7v12c2.&c4<b-2.&b-4a2.&a4a-2.&a-4

l12c<g>cecegrrerc f4erdc4d4 <gd>g<bgb>drr<brg l4ab>de<
l12ceg>c<ge e-gb->c<b-g fa>c<afd d-fga-gf l1e<<v16c
o4l4v12
[b2.&bdgb>c<a2.&ar1]
a2.&ar2ab-g2.&gr2fd->c2.&cr2<a>ed2.&dr2<g2
f2.&fdefgf2.&ff2g2
f2<a>cd-2eg f2<a>cd-2eg
a2fagab-ga2fa g>d-eg f2.&f f2.&f f2.&f <fr2.r1
;

#B=
v8 x128
%4 @1 na1 _na11 s0 @k3
$
o8l12q16
c<g>cecegrrerc frrerc<a4b4> c<g>cecegrrgrcl4<ab>cd< 
l12[ggg]16o4c4r2.> a4aral4fa< cr2.> l4fga-a- 
>l2cc cc c1&c2.&q15c4

o6l12q15
[g<gb>d<b>dg4d4 ggrdr<b>d4<b4>
f<fa>c<a>cf4c4 <a4br>cf4c4]
o7l12q15
[o7adfcd<acfadfc]
[o7f<b->d-<gb-fgd-f<b->d-<g]
o5[eeegrce4r4]
f#f#f#arcl4f#r f#fee-
l12b-4argl4ag b->cde 
dl12cr<b->c4<b-ra l4b-al12b-b>cc#4
[o7a<a>f<a>c<aa<a>f<a>c<a >>f<b->d-<b->d-g<f<b->d-<b->d-g]4
o5
[cfa>fc<a]
[e-gb->c<b-a-]
[fb->cdc<b-]
<a4r2.r1
;

#C=
v8 x128
%4 @1 na1 s32 @k-3
$
o7l12q16
r1r1 ecegeg>crr<gre fcfgfga-fa-a-fa- [fffeeedddeee]4
o4l4gr2.> cc<a>f gr2.> cdff g2.&g4 f2.&f4 e1&e2.&q15e4
o6l12q15
[d<dgbgb>d4<b4> ddr<brgb4g4
>c<cfafa>c4<a4 f4gra>c4<a4>]
[o7f<b->d<gafadf<b->d<a]
[o7d-<gb-d-fd-d-<b->d-<gb-d-]
[o5cccer<a>c4r4]
cccf#r<f#>l4cr <aa-gg-
>dl12cr<b-l4>c<b- >gab->c
<b-l12arga4grfg4f4 gg#ab-4
[o7f<f>c<faff<f>c<faf >>d-<gb-gb->e<d-<gb-gb->e]4
o4l4a&a<f&f>a-&a-<f&f>b-&b-<f&f> cr2.r1
;

#D=
v16 x128
%1 @8,58,0,0,58
$
l1
rrrr rrrr
o3l4q16crrr q15fedg q16crrr q15l12>frf<f4>a-fc<a-4
c4&q1crq14c e-4&q1e-rq14e- d4&q1drq14d d-4&q1d-rq14d- q12[c4crc]4
[c4crc]16
<[b-4b-rb-]8
>[a4ara]4[d4drd]4
[g4grg]4[c4crc]4
[f4>frc<]16
[f4>fr<f]6f4r2.r1
;

#E=
v8 x128
%1 @9 na2 l12 q15
o0
$
[10crr rrc crr rrr]10
[crr ccc]12
[crr ccc]16
[crr ccc]16
[crr ccc]16
[crr ccc]14
c4r2.r1
;

t150
@v128 A;
@v80 @p20  B;
@v80 @p-20 C;
@v80 D;
@v80 E;

#END;
