/*
   [AC] GRADIUS - Historic Soldier - (naming) (C)KONAMI 1985 by LinearDrive
   date:2011-03-29
   JASRAC:033-1694-7
*/


#TITLE{[AC] GRADIUS - Historic Soldier - (naming) (C)KONAMI 1985};
#REV;
#TMODE{unit=100};
#QUANT 16;


/* 0005289 波形データ */
#WAVB  0 {F080F020405060504020F0C0A0908090A0C0F03050605030F0B0908090B0F060};
#WAVB  1 {B090F0604010406020F0407050002030F0A0005010C0D0F0A080B000D090B0E0};
#WAVB  2 {C0F020404020F0F0003050605020E0D0D0F0101000C0908090B0E0F0F0C0A0A0};
#WAVB  3 {C0D0F0102030405050606060505040302010F0D0C0B0A090908080809090A0B0};
#WAVB  4 {8080000000000070700000808080000000007070700080800000000070700000};
#WAVB  5 {8080000000800070707000000080000000808080800080800000000080808000};
#WAVB  6 {707080809090A0A0B0B0C0C0D0D0E0E0F0F00000101020203030404050506060};
#WAVB  7 {8080606060606060606080808080808080806060608080806060606060808080};
#WAVB  8 {F080F020405060504020F0C0A0908090A0C0F03050605030F0B0908090B0F060};
#WAVB  9 {B090F0604010406020F0407050002030F0A0005010C0D0F0A080B000D090B0E0};
#WAVB 10 {C0F020404020F0F0003050605020E0D0D0F0101000C0908090B0E0F0F0C0A0A0};
#WAVB 11 {6050A0909090A0A0B0B0C0C0D0D0E0E0F0F00000101020203030404050506060};
#WAVB 12 {8080707070708080808080808080808080808080808080808080808080808080};
#WAVB 13 {8080707070707070707080808080808080808080808080808080808080808080};
#WAVB 14 {F0D0F0002030F05050F060F05050F0302010F0D0F0B0F090F080F080F090F0B0};
#WAVB 15 {80807070608090908080404030809090808020201080909080800000F0809090};


/* シーケンサ初期化
   AY3-8910:v-scale=-3dB/vstep
   0005289 :v-scale=-1.25dB/vstep (0.25dB*5vstep)
   113(v16) 108 103 98 93 88 83 78 73 68 63 58 53 48 43 38 0
*/
#I= %8 @8,63,0,0,63,0 %v3,4 %x1 v0 x128 q16 @q0 o5 kt0 k0;
#J= %4 @0,63,0,0,63,0 %v4,1 %x1 v0 x128 q16 @q0 o5 kt0 k0;


/* 音長制御用 */
#Q= q2;
#R= q16;


/* AY3-8910 ch.1 (iv9) */
#A=
   I l12 @8,63,0,0,28,0 v12 o6
   $

   R c+& )c+& )c+& c+ r (d& drr (err  )d&d&d& d r (c+& c+rr drr
   R ) a2.&arr  Q  bra gr  f+&f+r  e  d&dr
   R c+&c+&c+& c+ r (d& drr ((brr ))
   )
   Q arb >c+r  d&dr  e f+r  g&gr  f+ dr  <b&br>  d c+r 
   R d& d&d&d rr< Q a&ar  g f+ r d
   (
;


/* AY3-8910 ch.2 (iv9) */
#B=
   I l12 @8,63,0,0,32,0 v12 o5
   $
   Q
   grd grd grd grd
   grd grd grd grd
   f+rc+ f+rc+ f+rc+ f+rc+
   <b&br> c+r d&dr  e  f+&f+r
   grd grd grd grd
   f+&f+r c+ r   <b&br>  c+ d r
   e&er   f+ gr   a&ar   e a r
   g&gr   f+ er  f+&f+r  e  d&dr
;


/* AY3-8910 ch.3 (iv9) */
#C=
   I l12 @8,63,0,0,32,0 v12 o4
   $
   Q
   grd grd grd grd
   grd grd grd grd
   f+rc+ f+rc+ f+rc+ f+rc+
   <b&br> c+r d&dr  e  f+&f+r
   grd grd grd grd
   f+&f+r c+ r   <b&br>  c+ d r
   e&er   f+ gr   a&ar   e a r
   g&gr   f+ er  f+&f+r  e  d&dr
;


/* 0005289 ch.1 (iv11) */
#D=
   J l12 @3,63,0,0,27,0 v88 o5 k4
   $
   R a& )5 a& )5 a& a r   (5 b& brr (5 >c+rr<  b&b&b& b r )5 a& arr (5 brr >
   c+& )5 c+& )5 c+& c+ r (5 d& drr (5 err  d&d&d& d r < b& b&b&b& brr
   a&a&a& a r (5 b& brr (10 >drr )15
   )5
   Q
   c+&c+r a r f+& f+&f+r br b& br a f+r
   d& dr  g er  b& br a  gr d& d&dr  <a&ar
   (5
;


/* 0005289 ch.2 (iv11) */
#E=
   J l12 @13,63,0,0,27,0 v88 o6 k8
   $
   R c+& )5 c+& )5 c+& c+ r (5 d& drr (5 err  )5 d&d&d& d r (5 c+& c+rr drr
   R )5 a2.&arr  Q  bra gr  f+&f+r  e  d&dr
   R c+&c+&c+& c+ r (5 d& drr (10 brr )10
   )5
   Q arb >c+r  d&dr  e f+r  g&gr  f+ dr  <b&br>  d c+r 
   R d& d&d&d rr< Q a&ar  g f+ r d
   (5
;


/* 再生 */
t18200
A;
B;
C;
D;
E;


#END;
