/*
   [AC] MAPPY - MICRO WAVE - (SE) (C)namco 1983 by LinearDrive
   date:2011-04-19
   JASRAC:099-8506-9
*/


#TITLE{[AC] MAPPY - MICRO WAVE - (SE) (C)namco 1983};
#REV;
#TMODE{unit=100};
#FPS   60;
#QUANT 16;


/* MAPPY 波形データ */
#WAVB  0 {6060606060606060606060606060606080808080808080808080808080808080};
#WAVB  1 {80809090A0A0B0B0C0C0D0D0E0E0F0F000001010202030304040505060607070};
#WAVB  2 {80A0B0C0E0E0C0D01020200020F02010F0F010E000E0D0E02040202040506070};
#WAVB  3 {30506050402000000020405060503000C0A090A0B0D0F0F0F0D0B0A090A0C0F0};
#WAVB  4 {F020405060504020F0C0A0908090A0C0F03050605030F0B0908090B0F060F080};
#WAVB  5 {20404020F0F0003050605020E0D0D0F0101000C0908090B0E0F0F0C0A0A0C0F0};
#WAVB  6 {F0604010406020F0407050002030F0A0005010C0D0F0A080B000D090B0E0B090};
#WAVB  7 {6060F0F06060F0F06060F0F06060F0F08080F0F08080F0F08080F0F08080F0F0};


/* テーブルエンベロープ */
#TABLE  0 { | 0  }*8;
#TABLE  1 { | 12 }*8;


/* シーケンサ初期化（位相非同期モード） */
#M=
   %4 @0,63,0,0,63,0 %v0,4 %x0
   @ph255
   v0 x128 q16 @q0 o5 kt0 k0 s0 na1 _na0 v16
;


/* WSG ch.1 (iv12) */
#A=
   M l32 o5 k-32
   na1
   [
     @7 gab>de
     @0 ged<ba
     @1 gab>de
     @2 ged<ba
     @3 gab>de
     @4 ged<ba
     @5 gab>de
     @6 ged<ba
   ]2
   r1
;


/* 再生 */
t22500
A;


#END;

