t160rl16v12>b.f+e.b.f+e.b.f+e.b.f+e.b.f+e.b.f+e.b.f+e.b.f+e.v13a+.f+d+.a+.f+d+.a+.f+d+.a+.f+d+.a+.f+d+.a+.f+d+.a+.f+d+.a+.f+d+.v14a+.f+d+.a+.f+d+.g+.fc+.g+.fc+.f+.d+<a+.>f.f+g+.d+4.n58c+v15d+.<a+f+.>d+.<a+f+.>f.c+<g+.>f.c+<g+.>f.d<g+.>f.f+g+.a+2a+.f+d+.a+.f+d+.g+.fc+.g+.fc+.f+.d+<a+.>f.f+g+.d+4.n58c+d+.<a+f+.>d+.<a+f+.>f.c+<g+.>f.c+<g+.>f.d<g+.>f.d<g+.l8.>a+a+a+8l2dc+fl1.e&e&e&e&e8l8edc+l4c-f+c+f+dl8ef+e4g+4bf+>c+dc+d16c+16<baf+aef+d2l4c-f+c+f+dl8ef+e4g+4bf+>c+dc+d16c+16<bab2.;

v11l8<<f+al1b&b>d+&d+v11l2c-c+d+d+4c+4c-c+d4<a+8>d8d+4<a+4b>c+d+l4d+c+c-2c+l8c+fd2d.d.d<bb>f+f+<a+a+>ffc+c+g+g+ccgg<bb>f+f+<a+a+>ffc+c+g+g+ccgg<bb>f+f+<a+a+>ffc+c+g+g+ccgg<bb>f+f+<a+a+>ffc+c+g+g+ggccl4<gban37bal2g+gaf+b4>c+4c-c+degab2.;

rv12l1>b&ba+.&a+4l16d+a+c+l1.g+&g+&g+&g+&g+&g+16l8.v13<f+f+f+8l2o6dc+fe&e8l4ddc+c+ffeeddc+c+ffeeddc+c+ffee8n54<dn54dc-l8c+dc+4e4f+dabab16a16f+ddf+c+d<b2l4f+>dn54dc-l8c+dc+4e4f+dabab16a16f+df+2.;
