#MA@0{5 2 // Celesta
02 14 06 06 05 15 21 1 2 09 0 0
00 13 04 04 04 14 06 0 0 01 0 0
05 14 06 06 06 12 22 1 3 10 0 0
00 14 04 04 04 14 06 0 0 01 0 0};

#A=
l4
%6@0q1v10@p-2
a2<a2.ag#f#g#e<e2.edc>b<dc>ba<c>baa2g#2a2b2
e2<e2.edcd>b<b2.bag#f#ag#f#edc>b<c2>a2b2g#2
;

#EFFECT0{delay 280, 50};

t160

AAarrrrrrrrrrrrrrrrrrrrrrr;
>rrrrrrrrAAarrrrrrrrrrrrrrr;
>>rrrrrrrrrrrrrrrrAAarrrrrrr;
>>>rrrrrrrrrrrrrrrrrrrrrrrrAAa;

