#TITLE{just some random untitled loop};
#SIGN{Dm};

#EFFECT1{lf3000delay360,64,1};

#OPN@0{6 4 // Analog bass #2 (q2)
21 05 00 00 02 35 0 00 0 0
26 10 00 11 01 00 0 01 0 0
27 00 00 11 00 00 0 01 3 0
27 14 00 11 01 00 0 01 7 0};

#OPN@1{6 0 // Voice' o3-o5
10 00 01 03 00 70 0 00 0 0
12 00 00 05 00 06 0 03 3 0
12 00 01 06 02 00 0 02 7 0
18 00 00 06 00 10 0 01 3 0};

#OPN@2{6 0 // Sin water synth
31 00 00 15 00 44 0 01 0 0
24 00 00 15 00 02 0 01 0 0
25 21 00 15 15 14 0 06 0 0
24 00 00 15 00 04 0 02 0 0};

#OPN@3{3 5 // Cutting E.Guitar
21 07 01 00 01 18 0 04 0 0
24 00 04 09 01 15 0 06 0 0
22 20 02 07 13 05 0 02 3 0
31 12 00 06 01 00 0 02 7 0};

//----------Rhythm
#@7{1 0 0 // BD
00 63 0 0 36 00 00 00 00 01 00 00 00 00 00
19 63 0 0 44 00 20 00 00 01 00 00 00 00 00
}@v96v96q0s,-128;

#@8{1 3 0 // SD
00 36 32 12 12 04 04 00 00 01 00 00 00 00 00
17 48 32 24 24 06 00 00 00 01 00 00 -1 00 47
}@f108@v72v16q8;
#@9{4 6 0 // Tambourine
32 32 28 16 04 02 10 0 0 10 0 0 2 0 0
45 56 28 48 44 05 00 0 0 05 0 0 2 0 0
40 32 28 20 08 02 00 0 0 10 0 0 2 0 0
40 52 28 48 28 06 00 0 0 15 0 0 2 0 0};
#@10{0 0 0 // ride
32 63 00 00 00 00 16 00 00 03 00 500 00 00 00
40 48 32 26 26 06 00 00 00 01 00  00 00 00 00};

t120

%6@0o3v16
$
[3[4[7d8][2d16]]]
[7f8][2f16]
[7g8][2g16]
[7b8][2b16]
<[7c8][2c16]>
;

%6@1o5v10l16@v64,12
$
[4aga<d>][4gfg<d>][4fefb][4gfgb]
;

%6@2o5v6l1
$
<c>&&b+&&b&&b&&
<c>&&b+&&d&&d&&
;

%6@2o5v6l1
$
a&&g&&f&&f&&
;

%6@3@v100,48o4v13l8
$
r2a&g&&a&g2..&&d&f4d4&d2r1r
r2a&g&&a&g2..&&d&f1r1r
r2a&g&&a&g2..&&d&f4d4&d2r1r
r2a&g&&a&g2..&&a<c4d&f4d4f4g4f4ag4r>
;

// bd/snr
%6@7o3l4 $ 
[3
[2@7d@8<<d>>]@7d@8<<d8.d8d16>>@7d8<<@8d4>>
[3@7d@8<<d>>]@7d@8<<d8.d16>>
]
[2@7d@8<<d>>]@7d@8<<d8.d8d16>>@7d8<<@8d4>>
@8<<d8d8>>[3@7d16<<@8d8>>]@7d16<<@8d16d16>>
<<[16d16]>>
;
%6@9o7l16 $ v3dv6dv12dv9d ; 